<?xml version="1.0" encoding="UTF-8" standalone="yes"?><svg xmlns="http://www.w3.org/2000/svg" xmlns:xlink="http://www.w3.org/1999/xlink" height="187px" style="width:145px;height:187px;" version="1.1" viewBox="0 0 145 187" width="145px"><defs><filter height="300%" id="f1" width="300%" x="-1" y="-1"><feGaussianBlur result="blurOut" stdDeviation="2.0"/><feColorMatrix in="blurOut" result="blurOut2" type="matrix" values="0 0 0 0 0 0 0 0 0 0 0 0 0 0 0 0 0 0 .4 0"/><feOffset dx="4.0" dy="4.0" in="blurOut2" result="blurOut3"/><feBlend in="SourceGraphic" in2="blurOut3" mode="normal"/></filter></defs><g><rect fill="#FEFECE" filter="url(#f1)" height="48" style="stroke: #A80036; stroke-width: 1.5;" width="130" x="6" y="8"/><ellipse cx="21" cy="24" fill="#ADD1B2" rx="11" ry="11" style="stroke: #A80036; stroke-width: 1.0;"/><path d="M23.3438,19.6719 L23.5156,19.75 C23.7344,19.4375 23.9375,19.3438 24.2344,19.3438 C24.5313,19.3438 24.8125,19.4844 24.9688,19.75 C25.0625,19.9063 25.0781,20.0313 25.0781,20.4688 L25.0781,21.8906 C25.0781,22.3125 25.0469,22.5 24.9375,22.6563 C24.7656,22.875 24.5,23.0156 24.2344,23.0156 C24.0156,23.0156 23.7813,22.9063 23.6406,22.7656 C23.5,22.6406 23.4688,22.5156 23.4063,22.1094 C23.3125,21.7031 23.1406,21.4844 22.6563,21.2031 C22.1875,20.9531 21.5781,20.7969 21,20.7969 C19.2656,20.7969 18.0156,22.1094 18.0156,23.8906 L18.0156,24.9844 C18.0156,26.6875 19.3125,27.7813 21.3594,27.7813 C22.125,27.7813 22.8125,27.6563 23.2344,27.3906 C23.4219,27.2969 23.4219,27.2969 23.875,26.8125 C24.0625,26.625 24.2656,26.5469 24.4844,26.5469 C24.9531,26.5469 25.3438,26.9375 25.3438,27.3906 C25.3438,27.7813 25.0156,28.2344 24.4375,28.6406 C23.6875,29.1875 22.5313,29.4844 21.3125,29.4844 C18.4219,29.4844 16.3125,27.5938 16.3125,25.0156 L16.3125,23.8906 C16.3125,21.1719 18.3125,19.0938 20.9375,19.0938 C21.8125,19.0938 22.4063,19.2344 23.3438,19.6719 Z "/><text fill="#000000" font-family="sans-serif" font-size="12" lengthAdjust="spacingAndGlyphs" textLength="98" x="35" y="27.7">GermaniumDriver</text><line style="stroke: #A80036; stroke-width: 1.5;" x1="7" x2="135" y1="40" y2="40"/><line style="stroke: #A80036; stroke-width: 1.5;" x1="7" x2="135" y1="48" y2="48"/><rect fill="#FEFECE" filter="url(#f1)" height="48" style="stroke: #A80036; stroke-width: 1.5;" width="89" x="26.5" y="130"/><ellipse cx="41.5" cy="146" fill="#ADD1B2" rx="11" ry="11" style="stroke: #A80036; stroke-width: 1.0;"/><path d="M43.8438,141.6719 L44.0156,141.75 C44.2344,141.4375 44.4375,141.3438 44.7344,141.3438 C45.0313,141.3438 45.3125,141.4844 45.4688,141.75 C45.5625,141.9063 45.5781,142.0313 45.5781,142.4688 L45.5781,143.8906 C45.5781,144.3125 45.5469,144.5 45.4375,144.6563 C45.2656,144.875 45,145.0156 44.7344,145.0156 C44.5156,145.0156 44.2813,144.9063 44.1406,144.7656 C44,144.6406 43.9688,144.5156 43.9063,144.1094 C43.8125,143.7031 43.6406,143.4844 43.1563,143.2031 C42.6875,142.9531 42.0781,142.7969 41.5,142.7969 C39.7656,142.7969 38.5156,144.1094 38.5156,145.8906 L38.5156,146.9844 C38.5156,148.6875 39.8125,149.7813 41.8594,149.7813 C42.625,149.7813 43.3125,149.6563 43.7344,149.3906 C43.9219,149.2969 43.9219,149.2969 44.375,148.8125 C44.5625,148.625 44.7656,148.5469 44.9844,148.5469 C45.4531,148.5469 45.8438,148.9375 45.8438,149.3906 C45.8438,149.7813 45.5156,150.2344 44.9375,150.6406 C44.1875,151.1875 43.0313,151.4844 41.8125,151.4844 C38.9219,151.4844 36.8125,149.5938 36.8125,147.0156 L36.8125,145.8906 C36.8125,143.1719 38.8125,141.0938 41.4375,141.0938 C42.3125,141.0938 42.9063,141.2344 43.8438,141.6719 Z "/><text fill="#000000" font-family="sans-serif" font-size="12" lengthAdjust="spacingAndGlyphs" textLength="57" x="55.5" y="149.7">WebDriver</text><line style="stroke: #A80036; stroke-width: 1.5;" x1="27.5" x2="114.5" y1="162" y2="162"/><line style="stroke: #A80036; stroke-width: 1.5;" x1="27.5" x2="114.5" y1="170" y2="170"/><path d="M71,69.304 C71,89.0066 71,112.77 71,129.9338 " fill="none" style="stroke: #A80036; stroke-width: 1.0;"/><polygon fill="#A80036" points="71,56.137,67,62.137,71,68.137,75,62.137,71,56.137" style="stroke: #A80036; stroke-width: 1.0;"/><text fill="#000000" font-family="sans-serif" font-size="13" lengthAdjust="spacingAndGlyphs" textLength="65" x="72" y="97.4986">web_driver</text><text fill="#000000" font-family="sans-serif" font-size="13" lengthAdjust="spacingAndGlyphs" textLength="7" x="62.9281" y="119.3754">1</text></g></svg>