<?xml version="1.0" encoding="UTF-8" standalone="no"?><svg xmlns="http://www.w3.org/2000/svg" xmlns:xlink="http://www.w3.org/1999/xlink" contentScriptType="application/ecmascript" contentStyleType="text/css" height="282px" preserveAspectRatio="none" style="width:1084px;height:282px;" version="1.1" viewBox="0 0 1084 282" width="1084px" zoomAndPan="magnify"><defs><filter height="300%" id="fg0kx91" width="300%" x="-1" y="-1"><feGaussianBlur result="blurOut" stdDeviation="2.0"/><feColorMatrix in="blurOut" result="blurOut2" type="matrix" values="0 0 0 0 0 0 0 0 0 0 0 0 0 0 0 0 0 0 .4 0"/><feOffset dx="4.0" dy="4.0" in="blurOut2" result="blurOut3"/><feBlend in="SourceGraphic" in2="blurOut3" mode="normal"/></filter></defs><g><!--class DeferredLocator--><rect fill="#FEFECE" filter="url(#fg0kx91)" height="135.8906" style="stroke: #A80036; stroke-width: 1.5;" width="418" x="331.5" y="8"/><ellipse cx="491.75" cy="24" fill="#ADD1B2" rx="11" ry="11" style="stroke: #A80036; stroke-width: 1.0;"/><path d="M494.0938,19.6719 L494.2656,19.75 C494.4844,19.4375 494.6875,19.3438 494.9844,19.3438 C495.2813,19.3438 495.5625,19.4844 495.7188,19.75 C495.8125,19.9063 495.8281,20.0313 495.8281,20.4688 L495.8281,21.8906 C495.8281,22.3125 495.7969,22.5 495.6875,22.6563 C495.5156,22.875 495.25,23.0156 494.9844,23.0156 C494.7656,23.0156 494.5313,22.9063 494.3906,22.7656 C494.25,22.6406 494.2188,22.5156 494.1563,22.1094 C494.0625,21.7031 493.8906,21.4844 493.4063,21.2031 C492.9375,20.9531 492.3281,20.7969 491.75,20.7969 C490.0156,20.7969 488.7656,22.1094 488.7656,23.8906 L488.7656,24.9844 C488.7656,26.6875 490.0625,27.7813 492.1094,27.7813 C492.875,27.7813 493.5625,27.6563 493.9844,27.3906 C494.1719,27.2969 494.1719,27.2969 494.625,26.8125 C494.8125,26.625 495.0156,26.5469 495.2344,26.5469 C495.7031,26.5469 496.0938,26.9375 496.0938,27.3906 C496.0938,27.7813 495.7656,28.2344 495.1875,28.6406 C494.4375,29.1875 493.2813,29.4844 492.0625,29.4844 C489.1719,29.4844 487.0625,27.5938 487.0625,25.0156 L487.0625,23.8906 C487.0625,21.1719 489.0625,19.0938 491.6875,19.0938 C492.5625,19.0938 493.1563,19.2344 494.0938,19.6719 Z "/><text fill="#000000" font-family="sans-serif" font-size="12" lengthAdjust="spacingAndGlyphs" textLength="89" x="512.25" y="27.7">DeferredLocator</text><line style="stroke: #A80036; stroke-width: 1.5;" x1="332.5" x2="748.5" y1="40" y2="40"/><line style="stroke: #A80036; stroke-width: 1.5;" x1="332.5" x2="748.5" y1="48" y2="48"/><ellipse cx="342.5" cy="59" fill="#84BE84" rx="3" ry="3" style="stroke: #038048; stroke-width: 1.0;"/><text fill="#000000" font-family="sans-serif" font-size="11" lengthAdjust="spacingAndGlyphs" textLength="151" x="351.5" y="60.8893">__call__() : list&lt;WebElement&gt;</text><ellipse cx="342.5" cy="70" fill="#84BE84" rx="3" ry="3" style="stroke: #038048; stroke-width: 1.0;"/><text fill="#000000" font-family="sans-serif" font-size="11" lengthAdjust="spacingAndGlyphs" textLength="227" x="351.5" y="71.8893">element(only_visible: boolean) : WebElement</text><ellipse cx="342.5" cy="81" fill="#84BE84" rx="3" ry="3" style="stroke: #038048; stroke-width: 1.0;"/><text fill="#000000" font-family="sans-serif" font-size="11" lengthAdjust="spacingAndGlyphs" textLength="392" x="351.5" y="82.8893">element_list(index: int, only_visible: boolean) : list&lt;WebElement&gt;|WebElement</text><ellipse cx="342.5" cy="92" fill="#84BE84" rx="3" ry="3" style="stroke: #038048; stroke-width: 1.0;"/><text fill="#000000" font-family="sans-serif" font-size="11" lengthAdjust="spacingAndGlyphs" textLength="194" x="351.5" y="93.8893">exists(only_visible: boolean) : boolean</text><ellipse cx="342.5" cy="103" fill="#84BE84" rx="3" ry="3" style="stroke: #038048; stroke-width: 1.0;"/><text fill="#000000" font-family="sans-serif" font-size="11" lengthAdjust="spacingAndGlyphs" textLength="217" x="351.5" y="104.8893">not_exists(only_visible: boolean) : boolean</text><ellipse cx="342.5" cy="114" fill="#84BE84" rx="3" ry="3" style="stroke: #038048; stroke-width: 1.0;"/><text fill="#000000" font-family="sans-serif" font-size="11" lengthAdjust="spacingAndGlyphs" textLength="170" x="351.5" y="115.8893">text(only_visible: boolean) : string</text><polygon fill="#FFFF44" points="342.5,120,346.5,124,342.5,128,338.5,124" style="stroke: #B38D22; stroke-width: 1.0;"/><text fill="#000000" font-family="sans-serif" font-size="11" font-style="italic" lengthAdjust="spacingAndGlyphs" textLength="245" x="351.5" y="126.8893">_find_element(only_visible: boolean) : WebElement</text><polygon fill="#FFFF44" points="342.5,131,346.5,135,342.5,139,338.5,135" style="stroke: #B38D22; stroke-width: 1.0;"/><text fill="#000000" font-family="sans-serif" font-size="11" font-style="italic" lengthAdjust="spacingAndGlyphs" textLength="289" x="351.5" y="137.8893">_find_element_list(only_visible: boolean) : list&lt;WebElement&gt;</text><!--class CssLocator--><rect fill="#FEFECE" filter="url(#fg0kx91)" height="69.9727" style="stroke: #A80036; stroke-width: 1.5;" width="333" x="6" y="204"/><ellipse cx="137.25" cy="220" fill="#ADD1B2" rx="11" ry="11" style="stroke: #A80036; stroke-width: 1.0;"/><path d="M139.5938,215.6719 L139.7656,215.75 C139.9844,215.4375 140.1875,215.3438 140.4844,215.3438 C140.7813,215.3438 141.0625,215.4844 141.2188,215.75 C141.3125,215.9063 141.3281,216.0313 141.3281,216.4688 L141.3281,217.8906 C141.3281,218.3125 141.2969,218.5 141.1875,218.6563 C141.0156,218.875 140.75,219.0156 140.4844,219.0156 C140.2656,219.0156 140.0313,218.9063 139.8906,218.7656 C139.75,218.6406 139.7188,218.5156 139.6563,218.1094 C139.5625,217.7031 139.3906,217.4844 138.9063,217.2031 C138.4375,216.9531 137.8281,216.7969 137.25,216.7969 C135.5156,216.7969 134.2656,218.1094 134.2656,219.8906 L134.2656,220.9844 C134.2656,222.6875 135.5625,223.7813 137.6094,223.7813 C138.375,223.7813 139.0625,223.6563 139.4844,223.3906 C139.6719,223.2969 139.6719,223.2969 140.125,222.8125 C140.3125,222.625 140.5156,222.5469 140.7344,222.5469 C141.2031,222.5469 141.5938,222.9375 141.5938,223.3906 C141.5938,223.7813 141.2656,224.2344 140.6875,224.6406 C139.9375,225.1875 138.7813,225.4844 137.5625,225.4844 C134.6719,225.4844 132.5625,223.5938 132.5625,221.0156 L132.5625,219.8906 C132.5625,217.1719 134.5625,215.0938 137.1875,215.0938 C138.0625,215.0938 138.6563,215.2344 139.5938,215.6719 Z "/><text fill="#000000" font-family="sans-serif" font-size="12" lengthAdjust="spacingAndGlyphs" textLength="62" x="157.75" y="223.7">CssLocator</text><line style="stroke: #A80036; stroke-width: 1.5;" x1="7" x2="338" y1="236" y2="236"/><line style="stroke: #A80036; stroke-width: 1.5;" x1="7" x2="338" y1="244" y2="244"/><polygon fill="#FFFF44" points="17,250,21,254,17,258,13,254" style="stroke: #B38D22; stroke-width: 1.0;"/><text fill="#000000" font-family="sans-serif" font-size="11" lengthAdjust="spacingAndGlyphs" textLength="260" x="26" y="256.8893">_find_element(only_visible: boolean) : WebElement</text><polygon fill="#FFFF44" points="17,261,21,265,17,269,13,265" style="stroke: #B38D22; stroke-width: 1.0;"/><text fill="#000000" font-family="sans-serif" font-size="11" lengthAdjust="spacingAndGlyphs" textLength="307" x="26" y="267.8893">_find_element_list(only_visible: boolean) : list&lt;WebElement&gt;</text><!--class XPathLocator--><rect fill="#FEFECE" filter="url(#fg0kx91)" height="69.9727" style="stroke: #A80036; stroke-width: 1.5;" width="333" x="374" y="204"/><ellipse cx="499.25" cy="220" fill="#ADD1B2" rx="11" ry="11" style="stroke: #A80036; stroke-width: 1.0;"/><path d="M501.5938,215.6719 L501.7656,215.75 C501.9844,215.4375 502.1875,215.3438 502.4844,215.3438 C502.7813,215.3438 503.0625,215.4844 503.2188,215.75 C503.3125,215.9063 503.3281,216.0313 503.3281,216.4688 L503.3281,217.8906 C503.3281,218.3125 503.2969,218.5 503.1875,218.6563 C503.0156,218.875 502.75,219.0156 502.4844,219.0156 C502.2656,219.0156 502.0313,218.9063 501.8906,218.7656 C501.75,218.6406 501.7188,218.5156 501.6563,218.1094 C501.5625,217.7031 501.3906,217.4844 500.9063,217.2031 C500.4375,216.9531 499.8281,216.7969 499.25,216.7969 C497.5156,216.7969 496.2656,218.1094 496.2656,219.8906 L496.2656,220.9844 C496.2656,222.6875 497.5625,223.7813 499.6094,223.7813 C500.375,223.7813 501.0625,223.6563 501.4844,223.3906 C501.6719,223.2969 501.6719,223.2969 502.125,222.8125 C502.3125,222.625 502.5156,222.5469 502.7344,222.5469 C503.2031,222.5469 503.5938,222.9375 503.5938,223.3906 C503.5938,223.7813 503.2656,224.2344 502.6875,224.6406 C501.9375,225.1875 500.7813,225.4844 499.5625,225.4844 C496.6719,225.4844 494.5625,223.5938 494.5625,221.0156 L494.5625,219.8906 C494.5625,217.1719 496.5625,215.0938 499.1875,215.0938 C500.0625,215.0938 500.6563,215.2344 501.5938,215.6719 Z "/><text fill="#000000" font-family="sans-serif" font-size="12" lengthAdjust="spacingAndGlyphs" textLength="74" x="519.75" y="223.7">XPathLocator</text><line style="stroke: #A80036; stroke-width: 1.5;" x1="375" x2="706" y1="236" y2="236"/><line style="stroke: #A80036; stroke-width: 1.5;" x1="375" x2="706" y1="244" y2="244"/><polygon fill="#FFFF44" points="385,250,389,254,385,258,381,254" style="stroke: #B38D22; stroke-width: 1.0;"/><text fill="#000000" font-family="sans-serif" font-size="11" lengthAdjust="spacingAndGlyphs" textLength="260" x="394" y="256.8893">_find_element(only_visible: boolean) : WebElement</text><polygon fill="#FFFF44" points="385,261,389,265,385,269,381,265" style="stroke: #B38D22; stroke-width: 1.0;"/><text fill="#000000" font-family="sans-serif" font-size="11" lengthAdjust="spacingAndGlyphs" textLength="307" x="394" y="267.8893">_find_element_list(only_visible: boolean) : list&lt;WebElement&gt;</text><!--class JsLocator--><rect fill="#FEFECE" filter="url(#fg0kx91)" height="69.9727" style="stroke: #A80036; stroke-width: 1.5;" width="333" x="742" y="204"/><ellipse cx="877.75" cy="220" fill="#ADD1B2" rx="11" ry="11" style="stroke: #A80036; stroke-width: 1.0;"/><path d="M880.0938,215.6719 L880.2656,215.75 C880.4844,215.4375 880.6875,215.3438 880.9844,215.3438 C881.2813,215.3438 881.5625,215.4844 881.7188,215.75 C881.8125,215.9063 881.8281,216.0313 881.8281,216.4688 L881.8281,217.8906 C881.8281,218.3125 881.7969,218.5 881.6875,218.6563 C881.5156,218.875 881.25,219.0156 880.9844,219.0156 C880.7656,219.0156 880.5313,218.9063 880.3906,218.7656 C880.25,218.6406 880.2188,218.5156 880.1563,218.1094 C880.0625,217.7031 879.8906,217.4844 879.4063,217.2031 C878.9375,216.9531 878.3281,216.7969 877.75,216.7969 C876.0156,216.7969 874.7656,218.1094 874.7656,219.8906 L874.7656,220.9844 C874.7656,222.6875 876.0625,223.7813 878.1094,223.7813 C878.875,223.7813 879.5625,223.6563 879.9844,223.3906 C880.1719,223.2969 880.1719,223.2969 880.625,222.8125 C880.8125,222.625 881.0156,222.5469 881.2344,222.5469 C881.7031,222.5469 882.0938,222.9375 882.0938,223.3906 C882.0938,223.7813 881.7656,224.2344 881.1875,224.6406 C880.4375,225.1875 879.2813,225.4844 878.0625,225.4844 C875.1719,225.4844 873.0625,223.5938 873.0625,221.0156 L873.0625,219.8906 C873.0625,217.1719 875.0625,215.0938 877.6875,215.0938 C878.5625,215.0938 879.1563,215.2344 880.0938,215.6719 Z "/><text fill="#000000" font-family="sans-serif" font-size="12" lengthAdjust="spacingAndGlyphs" textLength="53" x="898.25" y="223.7">JsLocator</text><line style="stroke: #A80036; stroke-width: 1.5;" x1="743" x2="1074" y1="236" y2="236"/><line style="stroke: #A80036; stroke-width: 1.5;" x1="743" x2="1074" y1="244" y2="244"/><polygon fill="#FFFF44" points="753,250,757,254,753,258,749,254" style="stroke: #B38D22; stroke-width: 1.0;"/><text fill="#000000" font-family="sans-serif" font-size="11" lengthAdjust="spacingAndGlyphs" textLength="260" x="762" y="256.8893">_find_element(only_visible: boolean) : WebElement</text><polygon fill="#FFFF44" points="753,261,757,265,753,269,749,265" style="stroke: #B38D22; stroke-width: 1.0;"/><text fill="#000000" font-family="sans-serif" font-size="11" lengthAdjust="spacingAndGlyphs" textLength="307" x="762" y="267.8893">_find_element_list(only_visible: boolean) : list&lt;WebElement&gt;</text><path d="M368.762,152.135 C327.27,170.288 284.943,188.8063 250.27,203.9756 " fill="none" style="stroke: #A80036; stroke-width: 1.0;"/><polygon fill="none" points="365.971,145.716,387.1,144.113,371.582,158.542,365.971,145.716" style="stroke: #A80036; stroke-width: 1.0;"/><path d="M540.5,164.716 C540.5,178.6121 540.5,192.2188 540.5,203.8622 " fill="none" style="stroke: #A80036; stroke-width: 1.0;"/><polygon fill="none" points="533.5,164.346,540.5,144.346,547.5,164.346,533.5,164.346" style="stroke: #A80036; stroke-width: 1.0;"/><path d="M712.238,152.135 C753.73,170.288 796.057,188.8063 830.73,203.9756 " fill="none" style="stroke: #A80036; stroke-width: 1.0;"/><polygon fill="none" points="709.418,158.542,693.9,144.113,715.029,145.716,709.418,158.542" style="stroke: #A80036; stroke-width: 1.0;"/></g></svg>