<?xml version="1.0" encoding="UTF-8" standalone="no"?><svg xmlns="http://www.w3.org/2000/svg" xmlns:xlink="http://www.w3.org/1999/xlink" contentScriptType="application/ecmascript" contentStyleType="text/css" height="108px" preserveAspectRatio="none" style="width:180px;height:108px;" version="1.1" viewBox="0 0 180 108" width="180px" zoomAndPan="magnify"><defs><filter height="300%" id="fm3wqh0" width="300%" x="-1" y="-1"><feGaussianBlur result="blurOut" stdDeviation="2.0"/><feColorMatrix in="blurOut" result="blurOut2" type="matrix" values="0 0 0 0 0 0 0 0 0 0 0 0 0 0 0 0 0 0 .4 0"/><feOffset dx="4.0" dy="4.0" in="blurOut2" result="blurOut3"/><feBlend in="SourceGraphic" in2="blurOut3" mode="normal"/></filter></defs><g><!--class Point--><rect fill="#FEFECE" filter="url(#fm3wqh0)" height="91.9453" style="stroke: #A80036; stroke-width: 1.5;" width="165" x="6" y="8"/><ellipse cx="70.25" cy="24" fill="#ADD1B2" rx="11" ry="11" style="stroke: #A80036; stroke-width: 1.0;"/><path d="M72.5938,19.6719 L72.7656,19.75 C72.9844,19.4375 73.1875,19.3438 73.4844,19.3438 C73.7813,19.3438 74.0625,19.4844 74.2188,19.75 C74.3125,19.9063 74.3281,20.0313 74.3281,20.4688 L74.3281,21.8906 C74.3281,22.3125 74.2969,22.5 74.1875,22.6563 C74.0156,22.875 73.75,23.0156 73.4844,23.0156 C73.2656,23.0156 73.0313,22.9063 72.8906,22.7656 C72.75,22.6406 72.7188,22.5156 72.6563,22.1094 C72.5625,21.7031 72.3906,21.4844 71.9063,21.2031 C71.4375,20.9531 70.8281,20.7969 70.25,20.7969 C68.5156,20.7969 67.2656,22.1094 67.2656,23.8906 L67.2656,24.9844 C67.2656,26.6875 68.5625,27.7813 70.6094,27.7813 C71.375,27.7813 72.0625,27.6563 72.4844,27.3906 C72.6719,27.2969 72.6719,27.2969 73.125,26.8125 C73.3125,26.625 73.5156,26.5469 73.7344,26.5469 C74.2031,26.5469 74.5938,26.9375 74.5938,27.3906 C74.5938,27.7813 74.2656,28.2344 73.6875,28.6406 C72.9375,29.1875 71.7813,29.4844 70.5625,29.4844 C67.6719,29.4844 65.5625,27.5938 65.5625,25.0156 L65.5625,23.8906 C65.5625,21.1719 67.5625,19.0938 70.1875,19.0938 C71.0625,19.0938 71.6563,19.2344 72.5938,19.6719 Z "/><text fill="#000000" font-family="sans-serif" font-size="12" lengthAdjust="spacingAndGlyphs" textLength="28" x="90.75" y="27.7">Point</text><line style="stroke: #A80036; stroke-width: 1.5;" x1="7" x2="170" y1="40" y2="40"/><ellipse cx="17" cy="51" fill="none" rx="3" ry="3" style="stroke: #038048; stroke-width: 1.0;"/><text fill="#000000" font-family="sans-serif" font-size="11" lengthAdjust="spacingAndGlyphs" textLength="52" x="26" y="52.8893">x : number</text><ellipse cx="17" cy="62" fill="none" rx="3" ry="3" style="stroke: #038048; stroke-width: 1.0;"/><text fill="#000000" font-family="sans-serif" font-size="11" lengthAdjust="spacingAndGlyphs" textLength="52" x="26" y="63.8893">y : number</text><line style="stroke: #A80036; stroke-width: 1.5;" x1="7" x2="170" y1="69.9727" y2="69.9727"/><ellipse cx="17" cy="80.9727" fill="#84BE84" rx="3" ry="3" style="stroke: #038048; stroke-width: 1.0;"/><text fill="#000000" font-family="sans-serif" font-size="11" lengthAdjust="spacingAndGlyphs" textLength="139" x="26" y="82.8619">adjust_x(x : number) : Point</text><ellipse cx="17" cy="91.9727" fill="#84BE84" rx="3" ry="3" style="stroke: #038048; stroke-width: 1.0;"/><text fill="#000000" font-family="sans-serif" font-size="11" lengthAdjust="spacingAndGlyphs" textLength="139" x="26" y="93.8619">adjust_y(y : number) : Point</text></g></svg>