<?xml version="1.0" encoding="UTF-8" standalone="yes"?><svg xmlns="http://www.w3.org/2000/svg" xmlns:xlink="http://www.w3.org/1999/xlink" height="341px" style="width:509px;height:341px;" version="1.1" viewBox="0 0 509 341" width="509px"><defs><filter height="300%" id="f1" width="300%" x="-1" y="-1"><feGaussianBlur result="blurOut" stdDeviation="2.0"/><feColorMatrix in="blurOut" result="blurOut2" type="matrix" values="0 0 0 0 0 0 0 0 0 0 0 0 0 0 0 0 0 0 .4 0"/><feOffset dx="4.0" dy="4.0" in="blurOut2" result="blurOut3"/><feBlend in="SourceGraphic" in2="blurOut3" mode="normal"/></filter></defs><g><rect fill="#FEFECE" filter="url(#f1)" height="172.8496" style="stroke: #A80036; stroke-width: 1.5;" width="234" x="138" y="8"/><ellipse cx="206.75" cy="24" fill="#ADD1B2" rx="11" ry="11" style="stroke: #A80036; stroke-width: 1.0;"/><path d="M209.0938,19.6719 L209.2656,19.75 C209.4844,19.4375 209.6875,19.3438 209.9844,19.3438 C210.2813,19.3438 210.5625,19.4844 210.7188,19.75 C210.8125,19.9063 210.8281,20.0313 210.8281,20.4688 L210.8281,21.8906 C210.8281,22.3125 210.7969,22.5 210.6875,22.6563 C210.5156,22.875 210.25,23.0156 209.9844,23.0156 C209.7656,23.0156 209.5313,22.9063 209.3906,22.7656 C209.25,22.6406 209.2188,22.5156 209.1563,22.1094 C209.0625,21.7031 208.8906,21.4844 208.4063,21.2031 C207.9375,20.9531 207.3281,20.7969 206.75,20.7969 C205.0156,20.7969 203.7656,22.1094 203.7656,23.8906 L203.7656,24.9844 C203.7656,26.6875 205.0625,27.7813 207.1094,27.7813 C207.875,27.7813 208.5625,27.6563 208.9844,27.3906 C209.1719,27.2969 209.1719,27.2969 209.625,26.8125 C209.8125,26.625 210.0156,26.5469 210.2344,26.5469 C210.7031,26.5469 211.0938,26.9375 211.0938,27.3906 C211.0938,27.7813 210.7656,28.2344 210.1875,28.6406 C209.4375,29.1875 208.2813,29.4844 207.0625,29.4844 C204.1719,29.4844 202.0625,27.5938 202.0625,25.0156 L202.0625,23.8906 C202.0625,21.1719 204.0625,19.0938 206.6875,19.0938 C207.5625,19.0938 208.1563,19.2344 209.0938,19.6719 Z "/><text fill="#000000" font-family="sans-serif" font-size="12" lengthAdjust="spacingAndGlyphs" textLength="88" x="227.25" y="27.7">AbstractSelector</text><line style="stroke: #A80036; stroke-width: 1.5;" x1="139" x2="371" y1="40" y2="40"/><ellipse cx="149" cy="65.9863" fill="#84BE84" rx="3" ry="3" style="stroke: #038048; stroke-width: 1.0;"/><text fill="#000000" font-family="sans-serif" font-size="11" font-style="italic" lengthAdjust="spacingAndGlyphs" textLength="132" x="158" y="67.8756">List&lt;string&gt; get_selectors()</text><line style="stroke: #A80036; stroke-width: 1.0;" x1="139" x2="202.5" y1="53.4932" y2="53.4932"/><text fill="#000000" font-family="sans-serif" font-size="11" lengthAdjust="spacingAndGlyphs" textLength="105" x="202.5" y="56.3824">method to implement</text><line style="stroke: #A80036; stroke-width: 1.0;" x1="307.5" x2="371" y1="53.4932" y2="53.4932"/><ellipse cx="149" cy="91.959" fill="#84BE84" rx="3" ry="3" style="stroke: #038048; stroke-width: 1.0;"/><text fill="#000000" font-family="sans-serif" font-size="11" lengthAdjust="spacingAndGlyphs" textLength="201" x="158" y="93.8483">PositionalFilterSelector left_of(selector)</text><ellipse cx="149" cy="102.959" fill="#84BE84" rx="3" ry="3" style="stroke: #038048; stroke-width: 1.0;"/><text fill="#000000" font-family="sans-serif" font-size="11" lengthAdjust="spacingAndGlyphs" textLength="208" x="158" y="104.8483">PositionalFilterSelector right_of(selector)</text><ellipse cx="149" cy="113.959" fill="#84BE84" rx="3" ry="3" style="stroke: #038048; stroke-width: 1.0;"/><text fill="#000000" font-family="sans-serif" font-size="11" lengthAdjust="spacingAndGlyphs" textLength="199" x="158" y="115.8483">PositionalFilterSelector below(selector)</text><ellipse cx="149" cy="124.959" fill="#84BE84" rx="3" ry="3" style="stroke: #038048; stroke-width: 1.0;"/><text fill="#000000" font-family="sans-serif" font-size="11" lengthAdjust="spacingAndGlyphs" textLength="200" x="158" y="126.8483">PositionalFilterSelector above(selector)</text><line style="stroke: #A80036; stroke-width: 1.0;" x1="139" x2="210.5" y1="79.4658" y2="79.4658"/><text fill="#000000" font-family="sans-serif" font-size="11" lengthAdjust="spacingAndGlyphs" textLength="89" x="210.5" y="82.3551">positional filtering</text><line style="stroke: #A80036; stroke-width: 1.0;" x1="299.5" x2="371" y1="79.4658" y2="79.4658"/><ellipse cx="149" cy="150.8906" fill="#84BE84" rx="3" ry="3" style="stroke: #038048; stroke-width: 1.0;"/><text fill="#000000" font-family="sans-serif" font-size="11" lengthAdjust="spacingAndGlyphs" textLength="178" x="158" y="152.7799">InsideFilterSelector inside(selector)</text><ellipse cx="149" cy="161.8906" fill="#84BE84" rx="3" ry="3" style="stroke: #038048; stroke-width: 1.0;"/><text fill="#000000" font-family="sans-serif" font-size="11" lengthAdjust="spacingAndGlyphs" textLength="199" x="158" y="163.7799">InsideFilterSelector containing(selector)</text><ellipse cx="149" cy="172.8906" fill="#84BE84" rx="3" ry="3" style="stroke: #038048; stroke-width: 1.0;"/><text fill="#000000" font-family="sans-serif" font-size="11" lengthAdjust="spacingAndGlyphs" textLength="192" x="158" y="174.7799">InsideFilterSelector without_children()</text><line style="stroke: #A80036; stroke-width: 1.0;" x1="139" x2="206" y1="138.3975" y2="138.3975"/><text fill="#000000" font-family="sans-serif" font-size="11" lengthAdjust="spacingAndGlyphs" textLength="98" x="206" y="141.2867">parent/child filtering</text><line style="stroke: #A80036; stroke-width: 1.0;" x1="304" x2="371" y1="138.3975" y2="138.3975"/><rect fill="#FEFECE" filter="url(#f1)" height="91.9453" style="stroke: #A80036; stroke-width: 1.5;" width="234" x="6" y="241"/><ellipse cx="55.75" cy="257" fill="#ADD1B2" rx="11" ry="11" style="stroke: #A80036; stroke-width: 1.0;"/><path d="M58.0938,252.6719 L58.2656,252.75 C58.4844,252.4375 58.6875,252.3438 58.9844,252.3438 C59.2813,252.3438 59.5625,252.4844 59.7188,252.75 C59.8125,252.9063 59.8281,253.0313 59.8281,253.4688 L59.8281,254.8906 C59.8281,255.3125 59.7969,255.5 59.6875,255.6563 C59.5156,255.875 59.25,256.0156 58.9844,256.0156 C58.7656,256.0156 58.5313,255.9063 58.3906,255.7656 C58.25,255.6406 58.2188,255.5156 58.1563,255.1094 C58.0625,254.7031 57.8906,254.4844 57.4063,254.2031 C56.9375,253.9531 56.3281,253.7969 55.75,253.7969 C54.0156,253.7969 52.7656,255.1094 52.7656,256.8906 L52.7656,257.9844 C52.7656,259.6875 54.0625,260.7813 56.1094,260.7813 C56.875,260.7813 57.5625,260.6563 57.9844,260.3906 C58.1719,260.2969 58.1719,260.2969 58.625,259.8125 C58.8125,259.625 59.0156,259.5469 59.2344,259.5469 C59.7031,259.5469 60.0938,259.9375 60.0938,260.3906 C60.0938,260.7813 59.7656,261.2344 59.1875,261.6406 C58.4375,262.1875 57.2813,262.4844 56.0625,262.4844 C53.1719,262.4844 51.0625,260.5938 51.0625,258.0156 L51.0625,256.8906 C51.0625,254.1719 53.0625,252.0938 55.6875,252.0938 C56.5625,252.0938 57.1563,252.2344 58.0938,252.6719 Z "/><text fill="#000000" font-family="sans-serif" font-size="12" lengthAdjust="spacingAndGlyphs" textLength="126" x="76.25" y="260.7">PositionalFilterSelector</text><line style="stroke: #A80036; stroke-width: 1.5;" x1="7" x2="239" y1="273" y2="273"/><line style="stroke: #A80036; stroke-width: 1.5;" x1="7" x2="239" y1="281" y2="281"/><ellipse cx="17" cy="292" fill="#84BE84" rx="3" ry="3" style="stroke: #038048; stroke-width: 1.0;"/><text fill="#000000" font-family="sans-serif" font-size="11" lengthAdjust="spacingAndGlyphs" textLength="201" x="26" y="293.8893">PositionalFilterSelector left_of(selector)</text><ellipse cx="17" cy="303" fill="#84BE84" rx="3" ry="3" style="stroke: #038048; stroke-width: 1.0;"/><text fill="#000000" font-family="sans-serif" font-size="11" lengthAdjust="spacingAndGlyphs" textLength="208" x="26" y="304.8893">PositionalFilterSelector right_of(selector)</text><ellipse cx="17" cy="314" fill="#84BE84" rx="3" ry="3" style="stroke: #038048; stroke-width: 1.0;"/><text fill="#000000" font-family="sans-serif" font-size="11" lengthAdjust="spacingAndGlyphs" textLength="199" x="26" y="315.8893">PositionalFilterSelector below(selector)</text><ellipse cx="17" cy="325" fill="#84BE84" rx="3" ry="3" style="stroke: #038048; stroke-width: 1.0;"/><text fill="#000000" font-family="sans-serif" font-size="11" lengthAdjust="spacingAndGlyphs" textLength="200" x="26" y="326.8893">PositionalFilterSelector above(selector)</text><rect fill="#FEFECE" filter="url(#f1)" height="80.959" style="stroke: #A80036; stroke-width: 1.5;" width="225" x="275.5" y="246.5"/><ellipse cx="331.25" cy="262.5" fill="#ADD1B2" rx="11" ry="11" style="stroke: #A80036; stroke-width: 1.0;"/><path d="M333.5938,258.1719 L333.7656,258.25 C333.9844,257.9375 334.1875,257.8438 334.4844,257.8438 C334.7813,257.8438 335.0625,257.9844 335.2188,258.25 C335.3125,258.4063 335.3281,258.5313 335.3281,258.9688 L335.3281,260.3906 C335.3281,260.8125 335.2969,261 335.1875,261.1563 C335.0156,261.375 334.75,261.5156 334.4844,261.5156 C334.2656,261.5156 334.0313,261.4063 333.8906,261.2656 C333.75,261.1406 333.7188,261.0156 333.6563,260.6094 C333.5625,260.2031 333.3906,259.9844 332.9063,259.7031 C332.4375,259.4531 331.8281,259.2969 331.25,259.2969 C329.5156,259.2969 328.2656,260.6094 328.2656,262.3906 L328.2656,263.4844 C328.2656,265.1875 329.5625,266.2813 331.6094,266.2813 C332.375,266.2813 333.0625,266.1563 333.4844,265.8906 C333.6719,265.7969 333.6719,265.7969 334.125,265.3125 C334.3125,265.125 334.5156,265.0469 334.7344,265.0469 C335.2031,265.0469 335.5938,265.4375 335.5938,265.8906 C335.5938,266.2813 335.2656,266.7344 334.6875,267.1406 C333.9375,267.6875 332.7813,267.9844 331.5625,267.9844 C328.6719,267.9844 326.5625,266.0938 326.5625,263.5156 L326.5625,262.3906 C326.5625,259.6719 328.5625,257.5938 331.1875,257.5938 C332.0625,257.5938 332.6563,257.7344 333.5938,258.1719 Z "/><text fill="#000000" font-family="sans-serif" font-size="12" lengthAdjust="spacingAndGlyphs" textLength="105" x="351.75" y="266.2">InsideFilterSelector</text><line style="stroke: #A80036; stroke-width: 1.5;" x1="276.5" x2="499.5" y1="278.5" y2="278.5"/><line style="stroke: #A80036; stroke-width: 1.5;" x1="276.5" x2="499.5" y1="286.5" y2="286.5"/><ellipse cx="286.5" cy="297.5" fill="#84BE84" rx="3" ry="3" style="stroke: #038048; stroke-width: 1.0;"/><text fill="#000000" font-family="sans-serif" font-size="11" lengthAdjust="spacingAndGlyphs" textLength="178" x="295.5" y="299.3893">InsideFilterSelector inside(selector)</text><ellipse cx="286.5" cy="308.5" fill="#84BE84" rx="3" ry="3" style="stroke: #038048; stroke-width: 1.0;"/><text fill="#000000" font-family="sans-serif" font-size="11" lengthAdjust="spacingAndGlyphs" textLength="199" x="295.5" y="310.3893">InsideFilterSelector containing(selector)</text><ellipse cx="286.5" cy="319.5" fill="#84BE84" rx="3" ry="3" style="stroke: #038048; stroke-width: 1.0;"/><text fill="#000000" font-family="sans-serif" font-size="11" lengthAdjust="spacingAndGlyphs" textLength="192" x="295.5" y="321.3893">InsideFilterSelector without_children()</text><path d="M183.851,198.181 C173.492,213.131 163.303,227.835 154.314,240.8089 " fill="none" style="stroke: #A80036; stroke-width: 1.0;"/><polygon fill="none" points="178.42,193.729,195.565,181.276,189.927,201.702,178.42,193.729" style="stroke: #A80036; stroke-width: 1.0;"/><path d="M326.445,197.833 C338.486,215.079 350.31,232.015 360.325,246.3602 " fill="none" style="stroke: #A80036; stroke-width: 1.0;"/><polygon fill="none" points="320.595,201.682,314.886,181.276,332.074,193.668,320.595,201.682" style="stroke: #A80036; stroke-width: 1.0;"/></g></svg>