<?xml version="1.0" encoding="UTF-8" standalone="yes"?><svg xmlns="http://www.w3.org/2000/svg" xmlns:xlink="http://www.w3.org/1999/xlink" height="173px" style="width:292px;height:173px;" version="1.1" viewBox="0 0 292 173" width="292px"><defs><filter height="300%" id="f1" width="300%" x="-1" y="-1"><feGaussianBlur result="blurOut" stdDeviation="2.0"/><feColorMatrix in="blurOut" result="blurOut2" type="matrix" values="0 0 0 0 0 0 0 0 0 0 0 0 0 0 0 0 0 0 .4 0"/><feOffset dx="4.0" dy="4.0" in="blurOut2" result="blurOut3"/><feBlend in="SourceGraphic" in2="blurOut3" mode="normal"/></filter></defs><g><rect fill="#FEFECE" filter="url(#f1)" height="48" style="stroke: #A80036; stroke-width: 1.5;" width="120" x="66.5" y="8"/><ellipse cx="81.5" cy="24" fill="#ADD1B2" rx="11" ry="11" style="stroke: #A80036; stroke-width: 1.0;"/><path d="M83.8438,19.6719 L84.0156,19.75 C84.2344,19.4375 84.4375,19.3438 84.7344,19.3438 C85.0313,19.3438 85.3125,19.4844 85.4688,19.75 C85.5625,19.9063 85.5781,20.0313 85.5781,20.4688 L85.5781,21.8906 C85.5781,22.3125 85.5469,22.5 85.4375,22.6563 C85.2656,22.875 85,23.0156 84.7344,23.0156 C84.5156,23.0156 84.2813,22.9063 84.1406,22.7656 C84,22.6406 83.9688,22.5156 83.9063,22.1094 C83.8125,21.7031 83.6406,21.4844 83.1563,21.2031 C82.6875,20.9531 82.0781,20.7969 81.5,20.7969 C79.7656,20.7969 78.5156,22.1094 78.5156,23.8906 L78.5156,24.9844 C78.5156,26.6875 79.8125,27.7813 81.8594,27.7813 C82.625,27.7813 83.3125,27.6563 83.7344,27.3906 C83.9219,27.2969 83.9219,27.2969 84.375,26.8125 C84.5625,26.625 84.7656,26.5469 84.9844,26.5469 C85.4531,26.5469 85.8438,26.9375 85.8438,27.3906 C85.8438,27.7813 85.5156,28.2344 84.9375,28.6406 C84.1875,29.1875 83.0313,29.4844 81.8125,29.4844 C78.9219,29.4844 76.8125,27.5938 76.8125,25.0156 L76.8125,23.8906 C76.8125,21.1719 78.8125,19.0938 81.4375,19.0938 C82.3125,19.0938 82.9063,19.2344 83.8438,19.6719 Z "/><text fill="#000000" font-family="sans-serif" font-size="12" lengthAdjust="spacingAndGlyphs" textLength="88" x="95.5" y="27.7">AbstractSelector</text><line style="stroke: #A80036; stroke-width: 1.5;" x1="67.5" x2="185.5" y1="40" y2="40"/><line style="stroke: #A80036; stroke-width: 1.5;" x1="67.5" x2="185.5" y1="48" y2="48"/><rect fill="#FEFECE" filter="url(#f1)" height="48" style="stroke: #A80036; stroke-width: 1.5;" width="53" x="6" y="116"/><ellipse cx="21" cy="132" fill="#ADD1B2" rx="11" ry="11" style="stroke: #A80036; stroke-width: 1.0;"/><path d="M23.3438,127.6719 L23.5156,127.75 C23.7344,127.4375 23.9375,127.3438 24.2344,127.3438 C24.5313,127.3438 24.8125,127.4844 24.9688,127.75 C25.0625,127.9063 25.0781,128.0313 25.0781,128.4688 L25.0781,129.8906 C25.0781,130.3125 25.0469,130.5 24.9375,130.6563 C24.7656,130.875 24.5,131.0156 24.2344,131.0156 C24.0156,131.0156 23.7813,130.9063 23.6406,130.7656 C23.5,130.6406 23.4688,130.5156 23.4063,130.1094 C23.3125,129.7031 23.1406,129.4844 22.6563,129.2031 C22.1875,128.9531 21.5781,128.7969 21,128.7969 C19.2656,128.7969 18.0156,130.1094 18.0156,131.8906 L18.0156,132.9844 C18.0156,134.6875 19.3125,135.7813 21.3594,135.7813 C22.125,135.7813 22.8125,135.6563 23.2344,135.3906 C23.4219,135.2969 23.4219,135.2969 23.875,134.8125 C24.0625,134.625 24.2656,134.5469 24.4844,134.5469 C24.9531,134.5469 25.3438,134.9375 25.3438,135.3906 C25.3438,135.7813 25.0156,136.2344 24.4375,136.6406 C23.6875,137.1875 22.5313,137.4844 21.3125,137.4844 C18.4219,137.4844 16.3125,135.5938 16.3125,133.0156 L16.3125,131.8906 C16.3125,129.1719 18.3125,127.0938 20.9375,127.0938 C21.8125,127.0938 22.4063,127.2344 23.3438,127.6719 Z "/><text fill="#000000" font-family="sans-serif" font-size="12" lengthAdjust="spacingAndGlyphs" textLength="21" x="35" y="135.7">Css</text><line style="stroke: #A80036; stroke-width: 1.5;" x1="7" x2="58" y1="148" y2="148"/><line style="stroke: #A80036; stroke-width: 1.5;" x1="7" x2="58" y1="156" y2="156"/><rect fill="#FEFECE" filter="url(#f1)" height="48" style="stroke: #A80036; stroke-width: 1.5;" width="65" x="94" y="116"/><ellipse cx="109" cy="132" fill="#ADD1B2" rx="11" ry="11" style="stroke: #A80036; stroke-width: 1.0;"/><path d="M111.3438,127.6719 L111.5156,127.75 C111.7344,127.4375 111.9375,127.3438 112.2344,127.3438 C112.5313,127.3438 112.8125,127.4844 112.9688,127.75 C113.0625,127.9063 113.0781,128.0313 113.0781,128.4688 L113.0781,129.8906 C113.0781,130.3125 113.0469,130.5 112.9375,130.6563 C112.7656,130.875 112.5,131.0156 112.2344,131.0156 C112.0156,131.0156 111.7813,130.9063 111.6406,130.7656 C111.5,130.6406 111.4688,130.5156 111.4063,130.1094 C111.3125,129.7031 111.1406,129.4844 110.6563,129.2031 C110.1875,128.9531 109.5781,128.7969 109,128.7969 C107.2656,128.7969 106.0156,130.1094 106.0156,131.8906 L106.0156,132.9844 C106.0156,134.6875 107.3125,135.7813 109.3594,135.7813 C110.125,135.7813 110.8125,135.6563 111.2344,135.3906 C111.4219,135.2969 111.4219,135.2969 111.875,134.8125 C112.0625,134.625 112.2656,134.5469 112.4844,134.5469 C112.9531,134.5469 113.3438,134.9375 113.3438,135.3906 C113.3438,135.7813 113.0156,136.2344 112.4375,136.6406 C111.6875,137.1875 110.5313,137.4844 109.3125,137.4844 C106.4219,137.4844 104.3125,135.5938 104.3125,133.0156 L104.3125,131.8906 C104.3125,129.1719 106.3125,127.0938 108.9375,127.0938 C109.8125,127.0938 110.4063,127.2344 111.3438,127.6719 Z "/><text fill="#000000" font-family="sans-serif" font-size="12" lengthAdjust="spacingAndGlyphs" textLength="33" x="123" y="135.7">XPath</text><line style="stroke: #A80036; stroke-width: 1.5;" x1="95" x2="158" y1="148" y2="148"/><line style="stroke: #A80036; stroke-width: 1.5;" x1="95" x2="158" y1="156" y2="156"/><rect fill="#FEFECE" filter="url(#f1)" height="48" style="stroke: #A80036; stroke-width: 1.5;" width="89" x="194" y="116"/><ellipse cx="209" cy="132" fill="#ADD1B2" rx="11" ry="11" style="stroke: #A80036; stroke-width: 1.0;"/><path d="M211.3438,127.6719 L211.5156,127.75 C211.7344,127.4375 211.9375,127.3438 212.2344,127.3438 C212.5313,127.3438 212.8125,127.4844 212.9688,127.75 C213.0625,127.9063 213.0781,128.0313 213.0781,128.4688 L213.0781,129.8906 C213.0781,130.3125 213.0469,130.5 212.9375,130.6563 C212.7656,130.875 212.5,131.0156 212.2344,131.0156 C212.0156,131.0156 211.7813,130.9063 211.6406,130.7656 C211.5,130.6406 211.4688,130.5156 211.4063,130.1094 C211.3125,129.7031 211.1406,129.4844 210.6563,129.2031 C210.1875,128.9531 209.5781,128.7969 209,128.7969 C207.2656,128.7969 206.0156,130.1094 206.0156,131.8906 L206.0156,132.9844 C206.0156,134.6875 207.3125,135.7813 209.3594,135.7813 C210.125,135.7813 210.8125,135.6563 211.2344,135.3906 C211.4219,135.2969 211.4219,135.2969 211.875,134.8125 C212.0625,134.625 212.2656,134.5469 212.4844,134.5469 C212.9531,134.5469 213.3438,134.9375 213.3438,135.3906 C213.3438,135.7813 213.0156,136.2344 212.4375,136.6406 C211.6875,137.1875 210.5313,137.4844 209.3125,137.4844 C206.4219,137.4844 204.3125,135.5938 204.3125,133.0156 L204.3125,131.8906 C204.3125,129.1719 206.3125,127.0938 208.9375,127.0938 C209.8125,127.0938 210.4063,127.2344 211.3438,127.6719 Z "/><text fill="#000000" font-family="sans-serif" font-size="12" lengthAdjust="spacingAndGlyphs" textLength="57" x="223" y="135.7">JsSelector</text><line style="stroke: #A80036; stroke-width: 1.5;" x1="195" x2="282" y1="148" y2="148"/><line style="stroke: #A80036; stroke-width: 1.5;" x1="195" x2="282" y1="156" y2="156"/><path d="M92.6006,71.227 C79.4143,86.0966 64.7328,102.6523 53.1814,115.6784 " fill="none" style="stroke: #A80036; stroke-width: 1.0;"/><polygon fill="none" points="87.5963,66.3198,106.103,56,98.0709,75.6086,87.5963,66.3198" style="stroke: #A80036; stroke-width: 1.0;"/><path d="M126.5,76.0236 C126.5,89.5792 126.5,104.0381 126.5,115.6784 " fill="none" style="stroke: #A80036; stroke-width: 1.0;"/><polygon fill="none" points="119.5,76.0005,126.5,56,133.5,76.0004,119.5,76.0005" style="stroke: #A80036; stroke-width: 1.0;"/><path d="M165.392,69.8086 C181.482,85.0363 199.656,102.2366 213.858,115.6784 " fill="none" style="stroke: #A80036; stroke-width: 1.0;"/><polygon fill="none" points="160.517,74.8322,150.802,56,170.14,64.6641,160.517,74.8322" style="stroke: #A80036; stroke-width: 1.0;"/></g></svg>