<?xml version="1.0" encoding="UTF-8" standalone="yes"?><svg xmlns="http://www.w3.org/2000/svg" xmlns:xlink="http://www.w3.org/1999/xlink" height="330px" style="width:539px;height:330px;" version="1.1" viewBox="0 0 539 330" width="539px"><defs><filter height="300%" id="f1" width="300%" x="-1" y="-1"><feGaussianBlur result="blurOut" stdDeviation="2.0"/><feColorMatrix in="blurOut" result="blurOut2" type="matrix" values="0 0 0 0 0 0 0 0 0 0 0 0 0 0 0 0 0 0 .4 0"/><feOffset dx="4.0" dy="4.0" in="blurOut2" result="blurOut3"/><feBlend in="SourceGraphic" in2="blurOut3" mode="normal"/></filter></defs><g><rect fill="#FEFECE" filter="url(#f1)" height="161.8633" style="stroke: #A80036; stroke-width: 1.5;" width="255" x="135.5" y="8"/><ellipse cx="214.75" cy="24" fill="#ADD1B2" rx="11" ry="11" style="stroke: #A80036; stroke-width: 1.0;"/><path d="M217.0938,19.6719 L217.2656,19.75 C217.4844,19.4375 217.6875,19.3438 217.9844,19.3438 C218.2813,19.3438 218.5625,19.4844 218.7188,19.75 C218.8125,19.9063 218.8281,20.0313 218.8281,20.4688 L218.8281,21.8906 C218.8281,22.3125 218.7969,22.5 218.6875,22.6563 C218.5156,22.875 218.25,23.0156 217.9844,23.0156 C217.7656,23.0156 217.5313,22.9063 217.3906,22.7656 C217.25,22.6406 217.2188,22.5156 217.1563,22.1094 C217.0625,21.7031 216.8906,21.4844 216.4063,21.2031 C215.9375,20.9531 215.3281,20.7969 214.75,20.7969 C213.0156,20.7969 211.7656,22.1094 211.7656,23.8906 L211.7656,24.9844 C211.7656,26.6875 213.0625,27.7813 215.1094,27.7813 C215.875,27.7813 216.5625,27.6563 216.9844,27.3906 C217.1719,27.2969 217.1719,27.2969 217.625,26.8125 C217.8125,26.625 218.0156,26.5469 218.2344,26.5469 C218.7031,26.5469 219.0938,26.9375 219.0938,27.3906 C219.0938,27.7813 218.7656,28.2344 218.1875,28.6406 C217.4375,29.1875 216.2813,29.4844 215.0625,29.4844 C212.1719,29.4844 210.0625,27.5938 210.0625,25.0156 L210.0625,23.8906 C210.0625,21.1719 212.0625,19.0938 214.6875,19.0938 C215.5625,19.0938 216.1563,19.2344 217.0938,19.6719 Z "/><text fill="#000000" font-family="sans-serif" font-size="12" lengthAdjust="spacingAndGlyphs" textLength="88" x="235.25" y="27.7">AbstractSelector</text><line style="stroke: #A80036; stroke-width: 1.5;" x1="136.5" x2="389.5" y1="40" y2="40"/><ellipse cx="146.5" cy="65.9863" fill="#84BE84" rx="3" ry="3" style="stroke: #038048; stroke-width: 1.0;"/><text fill="#000000" font-family="sans-serif" font-size="11" font-style="italic" lengthAdjust="spacingAndGlyphs" textLength="132" x="155.5" y="67.8756">List&lt;string&gt; get_selectors()</text><line style="stroke: #A80036; stroke-width: 1.0;" x1="136.5" x2="210.5" y1="53.4932" y2="53.4932"/><text fill="#000000" font-family="sans-serif" font-size="11" lengthAdjust="spacingAndGlyphs" textLength="105" x="210.5" y="56.3824">method to implement</text><line style="stroke: #A80036; stroke-width: 1.0;" x1="315.5" x2="389.5" y1="53.4932" y2="53.4932"/><ellipse cx="146.5" cy="91.959" fill="#84BE84" rx="3" ry="3" style="stroke: #038048; stroke-width: 1.0;"/><text fill="#000000" font-family="sans-serif" font-size="11" lengthAdjust="spacingAndGlyphs" textLength="201" x="155.5" y="93.8483">PositionalFilterSelector left_of(selector)</text><ellipse cx="146.5" cy="102.959" fill="#84BE84" rx="3" ry="3" style="stroke: #038048; stroke-width: 1.0;"/><text fill="#000000" font-family="sans-serif" font-size="11" lengthAdjust="spacingAndGlyphs" textLength="208" x="155.5" y="104.8483">PositionalFilterSelector right_of(selector)</text><ellipse cx="146.5" cy="113.959" fill="#84BE84" rx="3" ry="3" style="stroke: #038048; stroke-width: 1.0;"/><text fill="#000000" font-family="sans-serif" font-size="11" lengthAdjust="spacingAndGlyphs" textLength="199" x="155.5" y="115.8483">PositionalFilterSelector below(selector)</text><ellipse cx="146.5" cy="124.959" fill="#84BE84" rx="3" ry="3" style="stroke: #038048; stroke-width: 1.0;"/><text fill="#000000" font-family="sans-serif" font-size="11" lengthAdjust="spacingAndGlyphs" textLength="200" x="155.5" y="126.8483">PositionalFilterSelector above(selector)</text><line style="stroke: #A80036; stroke-width: 1.0;" x1="136.5" x2="218.5" y1="79.4658" y2="79.4658"/><text fill="#000000" font-family="sans-serif" font-size="11" lengthAdjust="spacingAndGlyphs" textLength="89" x="218.5" y="82.3551">positional filtering</text><line style="stroke: #A80036; stroke-width: 1.0;" x1="307.5" x2="389.5" y1="79.4658" y2="79.4658"/><ellipse cx="146.5" cy="150.8906" fill="#84BE84" rx="3" ry="3" style="stroke: #038048; stroke-width: 1.0;"/><text fill="#000000" font-family="sans-serif" font-size="11" lengthAdjust="spacingAndGlyphs" textLength="208" x="155.5" y="152.7799">XPathInsideFilterSelector inside(selector)</text><ellipse cx="146.5" cy="161.8906" fill="#84BE84" rx="3" ry="3" style="stroke: #038048; stroke-width: 1.0;"/><text fill="#000000" font-family="sans-serif" font-size="11" lengthAdjust="spacingAndGlyphs" textLength="229" x="155.5" y="163.7799">XPathInsideFilterSelector containing(selector)</text><line style="stroke: #A80036; stroke-width: 1.0;" x1="136.5" x2="214" y1="138.3975" y2="138.3975"/><text fill="#000000" font-family="sans-serif" font-size="11" lengthAdjust="spacingAndGlyphs" textLength="98" x="214" y="141.2867">parent/child filtering</text><line style="stroke: #A80036; stroke-width: 1.0;" x1="312" x2="389.5" y1="138.3975" y2="138.3975"/><rect fill="#FEFECE" filter="url(#f1)" height="91.9453" style="stroke: #A80036; stroke-width: 1.5;" width="234" x="6" y="230"/><ellipse cx="55.75" cy="246" fill="#ADD1B2" rx="11" ry="11" style="stroke: #A80036; stroke-width: 1.0;"/><path d="M58.0938,241.6719 L58.2656,241.75 C58.4844,241.4375 58.6875,241.3438 58.9844,241.3438 C59.2813,241.3438 59.5625,241.4844 59.7188,241.75 C59.8125,241.9063 59.8281,242.0313 59.8281,242.4688 L59.8281,243.8906 C59.8281,244.3125 59.7969,244.5 59.6875,244.6563 C59.5156,244.875 59.25,245.0156 58.9844,245.0156 C58.7656,245.0156 58.5313,244.9063 58.3906,244.7656 C58.25,244.6406 58.2188,244.5156 58.1563,244.1094 C58.0625,243.7031 57.8906,243.4844 57.4063,243.2031 C56.9375,242.9531 56.3281,242.7969 55.75,242.7969 C54.0156,242.7969 52.7656,244.1094 52.7656,245.8906 L52.7656,246.9844 C52.7656,248.6875 54.0625,249.7813 56.1094,249.7813 C56.875,249.7813 57.5625,249.6563 57.9844,249.3906 C58.1719,249.2969 58.1719,249.2969 58.625,248.8125 C58.8125,248.625 59.0156,248.5469 59.2344,248.5469 C59.7031,248.5469 60.0938,248.9375 60.0938,249.3906 C60.0938,249.7813 59.7656,250.2344 59.1875,250.6406 C58.4375,251.1875 57.2813,251.4844 56.0625,251.4844 C53.1719,251.4844 51.0625,249.5938 51.0625,247.0156 L51.0625,245.8906 C51.0625,243.1719 53.0625,241.0938 55.6875,241.0938 C56.5625,241.0938 57.1563,241.2344 58.0938,241.6719 Z "/><text fill="#000000" font-family="sans-serif" font-size="12" lengthAdjust="spacingAndGlyphs" textLength="126" x="76.25" y="249.7">PositionalFilterSelector</text><line style="stroke: #A80036; stroke-width: 1.5;" x1="7" x2="239" y1="262" y2="262"/><line style="stroke: #A80036; stroke-width: 1.5;" x1="7" x2="239" y1="270" y2="270"/><ellipse cx="17" cy="281" fill="#84BE84" rx="3" ry="3" style="stroke: #038048; stroke-width: 1.0;"/><text fill="#000000" font-family="sans-serif" font-size="11" lengthAdjust="spacingAndGlyphs" textLength="201" x="26" y="282.8893">PositionalFilterSelector left_of(selector)</text><ellipse cx="17" cy="292" fill="#84BE84" rx="3" ry="3" style="stroke: #038048; stroke-width: 1.0;"/><text fill="#000000" font-family="sans-serif" font-size="11" lengthAdjust="spacingAndGlyphs" textLength="208" x="26" y="293.8893">PositionalFilterSelector right_of(selector)</text><ellipse cx="17" cy="303" fill="#84BE84" rx="3" ry="3" style="stroke: #038048; stroke-width: 1.0;"/><text fill="#000000" font-family="sans-serif" font-size="11" lengthAdjust="spacingAndGlyphs" textLength="199" x="26" y="304.8893">PositionalFilterSelector below(selector)</text><ellipse cx="17" cy="314" fill="#84BE84" rx="3" ry="3" style="stroke: #038048; stroke-width: 1.0;"/><text fill="#000000" font-family="sans-serif" font-size="11" lengthAdjust="spacingAndGlyphs" textLength="200" x="26" y="315.8893">PositionalFilterSelector above(selector)</text><rect fill="#FEFECE" filter="url(#f1)" height="69.9727" style="stroke: #A80036; stroke-width: 1.5;" width="255" x="275.5" y="241"/><ellipse cx="329.75" cy="257" fill="#ADD1B2" rx="11" ry="11" style="stroke: #A80036; stroke-width: 1.0;"/><path d="M332.0938,252.6719 L332.2656,252.75 C332.4844,252.4375 332.6875,252.3438 332.9844,252.3438 C333.2813,252.3438 333.5625,252.4844 333.7188,252.75 C333.8125,252.9063 333.8281,253.0313 333.8281,253.4688 L333.8281,254.8906 C333.8281,255.3125 333.7969,255.5 333.6875,255.6563 C333.5156,255.875 333.25,256.0156 332.9844,256.0156 C332.7656,256.0156 332.5313,255.9063 332.3906,255.7656 C332.25,255.6406 332.2188,255.5156 332.1563,255.1094 C332.0625,254.7031 331.8906,254.4844 331.4063,254.2031 C330.9375,253.9531 330.3281,253.7969 329.75,253.7969 C328.0156,253.7969 326.7656,255.1094 326.7656,256.8906 L326.7656,257.9844 C326.7656,259.6875 328.0625,260.7813 330.1094,260.7813 C330.875,260.7813 331.5625,260.6563 331.9844,260.3906 C332.1719,260.2969 332.1719,260.2969 332.625,259.8125 C332.8125,259.625 333.0156,259.5469 333.2344,259.5469 C333.7031,259.5469 334.0938,259.9375 334.0938,260.3906 C334.0938,260.7813 333.7656,261.2344 333.1875,261.6406 C332.4375,262.1875 331.2813,262.4844 330.0625,262.4844 C327.1719,262.4844 325.0625,260.5938 325.0625,258.0156 L325.0625,256.8906 C325.0625,254.1719 327.0625,252.0938 329.6875,252.0938 C330.5625,252.0938 331.1563,252.2344 332.0938,252.6719 Z "/><text fill="#000000" font-family="sans-serif" font-size="12" lengthAdjust="spacingAndGlyphs" textLength="138" x="350.25" y="260.7">XPathInsideFilterSelector</text><line style="stroke: #A80036; stroke-width: 1.5;" x1="276.5" x2="529.5" y1="273" y2="273"/><line style="stroke: #A80036; stroke-width: 1.5;" x1="276.5" x2="529.5" y1="281" y2="281"/><ellipse cx="286.5" cy="292" fill="#84BE84" rx="3" ry="3" style="stroke: #038048; stroke-width: 1.0;"/><text fill="#000000" font-family="sans-serif" font-size="11" lengthAdjust="spacingAndGlyphs" textLength="208" x="295.5" y="293.8893">XPathInsideFilterSelector inside(selector)</text><ellipse cx="286.5" cy="303" fill="#84BE84" rx="3" ry="3" style="stroke: #038048; stroke-width: 1.0;"/><text fill="#000000" font-family="sans-serif" font-size="11" lengthAdjust="spacingAndGlyphs" textLength="229" x="295.5" y="304.8893">XPathInsideFilterSelector containing(selector)</text><path d="M190.334,186.023 C178.729,201.358 167.223,216.562 157.093,229.9491 " fill="none" style="stroke: #A80036; stroke-width: 1.0;"/><polygon fill="none" points="184.757,181.792,202.408,170.068,195.921,190.24,184.757,181.792" style="stroke: #A80036; stroke-width: 1.0;"/><path d="M335.762,186.15 C350.61,205.77 365.291,225.1706 377.129,240.8138 " fill="none" style="stroke: #A80036; stroke-width: 1.0;"/><polygon fill="none" points="330.079,190.24,323.592,170.068,341.243,181.792,330.079,190.24" style="stroke: #A80036; stroke-width: 1.0;"/></g></svg>