<?xml version="1.0" encoding="UTF-8" standalone="yes"?><svg xmlns="http://www.w3.org/2000/svg" xmlns:xlink="http://www.w3.org/1999/xlink" height="374px" style="width:528px;height:374px;" version="1.1" viewBox="0 0 528 374" width="528px"><defs><filter height="300%" id="f1" width="300%" x="-1" y="-1"><feGaussianBlur result="blurOut" stdDeviation="2.0"/><feColorMatrix in="blurOut" result="blurOut2" type="matrix" values="0 0 0 0 0 0 0 0 0 0 0 0 0 0 0 0 0 0 .4 0"/><feOffset dx="4.0" dy="4.0" in="blurOut2" result="blurOut3"/><feBlend in="SourceGraphic" in2="blurOut3" mode="normal"/></filter></defs><g><rect fill="#FEFECE" filter="url(#f1)" height="194.8223" style="stroke: #A80036; stroke-width: 1.5;" width="244" x="138" y="8"/><ellipse cx="211.75" cy="24" fill="#ADD1B2" rx="11" ry="11" style="stroke: #A80036; stroke-width: 1.0;"/><path d="M214.0938,19.6719 L214.2656,19.75 C214.4844,19.4375 214.6875,19.3438 214.9844,19.3438 C215.2813,19.3438 215.5625,19.4844 215.7188,19.75 C215.8125,19.9063 215.8281,20.0313 215.8281,20.4688 L215.8281,21.8906 C215.8281,22.3125 215.7969,22.5 215.6875,22.6563 C215.5156,22.875 215.25,23.0156 214.9844,23.0156 C214.7656,23.0156 214.5313,22.9063 214.3906,22.7656 C214.25,22.6406 214.2188,22.5156 214.1563,22.1094 C214.0625,21.7031 213.8906,21.4844 213.4063,21.2031 C212.9375,20.9531 212.3281,20.7969 211.75,20.7969 C210.0156,20.7969 208.7656,22.1094 208.7656,23.8906 L208.7656,24.9844 C208.7656,26.6875 210.0625,27.7813 212.1094,27.7813 C212.875,27.7813 213.5625,27.6563 213.9844,27.3906 C214.1719,27.2969 214.1719,27.2969 214.625,26.8125 C214.8125,26.625 215.0156,26.5469 215.2344,26.5469 C215.7031,26.5469 216.0938,26.9375 216.0938,27.3906 C216.0938,27.7813 215.7656,28.2344 215.1875,28.6406 C214.4375,29.1875 213.2813,29.4844 212.0625,29.4844 C209.1719,29.4844 207.0625,27.5938 207.0625,25.0156 L207.0625,23.8906 C207.0625,21.1719 209.0625,19.0938 211.6875,19.0938 C212.5625,19.0938 213.1563,19.2344 214.0938,19.6719 Z "/><text fill="#000000" font-family="sans-serif" font-size="12" lengthAdjust="spacingAndGlyphs" textLength="88" x="232.25" y="27.7">AbstractSelector</text><line style="stroke: #A80036; stroke-width: 1.5;" x1="139" x2="381" y1="40" y2="40"/><ellipse cx="149" cy="65.9863" fill="#84BE84" rx="3" ry="3" style="stroke: #038048; stroke-width: 1.0;"/><text fill="#000000" font-family="sans-serif" font-size="11" font-style="italic" lengthAdjust="spacingAndGlyphs" textLength="132" x="158" y="67.8756">List&lt;string&gt; get_selectors()</text><line style="stroke: #A80036; stroke-width: 1.0;" x1="139" x2="207.5" y1="53.4932" y2="53.4932"/><text fill="#000000" font-family="sans-serif" font-size="11" lengthAdjust="spacingAndGlyphs" textLength="105" x="207.5" y="56.3824">method to implement</text><line style="stroke: #A80036; stroke-width: 1.0;" x1="312.5" x2="381" y1="53.4932" y2="53.4932"/><ellipse cx="149" cy="91.959" fill="#84BE84" rx="3" ry="3" style="stroke: #038048; stroke-width: 1.0;"/><text fill="#000000" font-family="sans-serif" font-size="11" lengthAdjust="spacingAndGlyphs" textLength="201" x="158" y="93.8483">PositionalFilterSelector left_of(selector)</text><ellipse cx="149" cy="102.959" fill="#84BE84" rx="3" ry="3" style="stroke: #038048; stroke-width: 1.0;"/><text fill="#000000" font-family="sans-serif" font-size="11" lengthAdjust="spacingAndGlyphs" textLength="208" x="158" y="104.8483">PositionalFilterSelector right_of(selector)</text><ellipse cx="149" cy="113.959" fill="#84BE84" rx="3" ry="3" style="stroke: #038048; stroke-width: 1.0;"/><text fill="#000000" font-family="sans-serif" font-size="11" lengthAdjust="spacingAndGlyphs" textLength="199" x="158" y="115.8483">PositionalFilterSelector below(selector)</text><ellipse cx="149" cy="124.959" fill="#84BE84" rx="3" ry="3" style="stroke: #038048; stroke-width: 1.0;"/><text fill="#000000" font-family="sans-serif" font-size="11" lengthAdjust="spacingAndGlyphs" textLength="200" x="158" y="126.8483">PositionalFilterSelector above(selector)</text><line style="stroke: #A80036; stroke-width: 1.0;" x1="139" x2="215.5" y1="79.4658" y2="79.4658"/><text fill="#000000" font-family="sans-serif" font-size="11" lengthAdjust="spacingAndGlyphs" textLength="89" x="215.5" y="82.3551">positional filtering</text><line style="stroke: #A80036; stroke-width: 1.0;" x1="304.5" x2="381" y1="79.4658" y2="79.4658"/><ellipse cx="149" cy="150.8906" fill="#84BE84" rx="3" ry="3" style="stroke: #038048; stroke-width: 1.0;"/><text fill="#000000" font-family="sans-serif" font-size="11" lengthAdjust="spacingAndGlyphs" textLength="178" x="158" y="152.7799">InsideFilterSelector inside(selector)</text><ellipse cx="149" cy="161.8906" fill="#84BE84" rx="3" ry="3" style="stroke: #038048; stroke-width: 1.0;"/><text fill="#000000" font-family="sans-serif" font-size="11" lengthAdjust="spacingAndGlyphs" textLength="185" x="158" y="163.7799">InsideFilterSelector outside(selector)</text><ellipse cx="149" cy="172.8906" fill="#84BE84" rx="3" ry="3" style="stroke: #038048; stroke-width: 1.0;"/><text fill="#000000" font-family="sans-serif" font-size="11" lengthAdjust="spacingAndGlyphs" textLength="199" x="158" y="174.7799">InsideFilterSelector containing(selector)</text><ellipse cx="149" cy="183.8906" fill="#84BE84" rx="3" ry="3" style="stroke: #038048; stroke-width: 1.0;"/><text fill="#000000" font-family="sans-serif" font-size="11" lengthAdjust="spacingAndGlyphs" textLength="218" x="158" y="185.7799">InsideFilterSelector containing_all(selector)</text><ellipse cx="149" cy="194.8906" fill="#84BE84" rx="3" ry="3" style="stroke: #038048; stroke-width: 1.0;"/><text fill="#000000" font-family="sans-serif" font-size="11" lengthAdjust="spacingAndGlyphs" textLength="192" x="158" y="196.7799">InsideFilterSelector without_children()</text><line style="stroke: #A80036; stroke-width: 1.0;" x1="139" x2="211" y1="138.3975" y2="138.3975"/><text fill="#000000" font-family="sans-serif" font-size="11" lengthAdjust="spacingAndGlyphs" textLength="98" x="211" y="141.2867">parent/child filtering</text><line style="stroke: #A80036; stroke-width: 1.0;" x1="309" x2="381" y1="138.3975" y2="138.3975"/><rect fill="#FEFECE" filter="url(#f1)" height="91.9453" style="stroke: #A80036; stroke-width: 1.5;" width="234" x="6" y="268.5"/><ellipse cx="55.75" cy="284.5" fill="#ADD1B2" rx="11" ry="11" style="stroke: #A80036; stroke-width: 1.0;"/><path d="M58.0938,280.1719 L58.2656,280.25 C58.4844,279.9375 58.6875,279.8438 58.9844,279.8438 C59.2813,279.8438 59.5625,279.9844 59.7188,280.25 C59.8125,280.4063 59.8281,280.5313 59.8281,280.9688 L59.8281,282.3906 C59.8281,282.8125 59.7969,283 59.6875,283.1563 C59.5156,283.375 59.25,283.5156 58.9844,283.5156 C58.7656,283.5156 58.5313,283.4063 58.3906,283.2656 C58.25,283.1406 58.2188,283.0156 58.1563,282.6094 C58.0625,282.2031 57.8906,281.9844 57.4063,281.7031 C56.9375,281.4531 56.3281,281.2969 55.75,281.2969 C54.0156,281.2969 52.7656,282.6094 52.7656,284.3906 L52.7656,285.4844 C52.7656,287.1875 54.0625,288.2813 56.1094,288.2813 C56.875,288.2813 57.5625,288.1563 57.9844,287.8906 C58.1719,287.7969 58.1719,287.7969 58.625,287.3125 C58.8125,287.125 59.0156,287.0469 59.2344,287.0469 C59.7031,287.0469 60.0938,287.4375 60.0938,287.8906 C60.0938,288.2813 59.7656,288.7344 59.1875,289.1406 C58.4375,289.6875 57.2813,289.9844 56.0625,289.9844 C53.1719,289.9844 51.0625,288.0938 51.0625,285.5156 L51.0625,284.3906 C51.0625,281.6719 53.0625,279.5938 55.6875,279.5938 C56.5625,279.5938 57.1563,279.7344 58.0938,280.1719 Z "/><text fill="#000000" font-family="sans-serif" font-size="12" lengthAdjust="spacingAndGlyphs" textLength="126" x="76.25" y="288.2">PositionalFilterSelector</text><line style="stroke: #A80036; stroke-width: 1.5;" x1="7" x2="239" y1="300.5" y2="300.5"/><line style="stroke: #A80036; stroke-width: 1.5;" x1="7" x2="239" y1="308.5" y2="308.5"/><ellipse cx="17" cy="319.5" fill="#84BE84" rx="3" ry="3" style="stroke: #038048; stroke-width: 1.0;"/><text fill="#000000" font-family="sans-serif" font-size="11" lengthAdjust="spacingAndGlyphs" textLength="201" x="26" y="321.3893">PositionalFilterSelector left_of(selector)</text><ellipse cx="17" cy="330.5" fill="#84BE84" rx="3" ry="3" style="stroke: #038048; stroke-width: 1.0;"/><text fill="#000000" font-family="sans-serif" font-size="11" lengthAdjust="spacingAndGlyphs" textLength="208" x="26" y="332.3893">PositionalFilterSelector right_of(selector)</text><ellipse cx="17" cy="341.5" fill="#84BE84" rx="3" ry="3" style="stroke: #038048; stroke-width: 1.0;"/><text fill="#000000" font-family="sans-serif" font-size="11" lengthAdjust="spacingAndGlyphs" textLength="199" x="26" y="343.3893">PositionalFilterSelector below(selector)</text><ellipse cx="17" cy="352.5" fill="#84BE84" rx="3" ry="3" style="stroke: #038048; stroke-width: 1.0;"/><text fill="#000000" font-family="sans-serif" font-size="11" lengthAdjust="spacingAndGlyphs" textLength="200" x="26" y="354.3893">PositionalFilterSelector above(selector)</text><rect fill="#FEFECE" filter="url(#f1)" height="102.9316" style="stroke: #A80036; stroke-width: 1.5;" width="244" x="275" y="263"/><ellipse cx="340.25" cy="279" fill="#ADD1B2" rx="11" ry="11" style="stroke: #A80036; stroke-width: 1.0;"/><path d="M342.5938,274.6719 L342.7656,274.75 C342.9844,274.4375 343.1875,274.3438 343.4844,274.3438 C343.7813,274.3438 344.0625,274.4844 344.2188,274.75 C344.3125,274.9063 344.3281,275.0313 344.3281,275.4688 L344.3281,276.8906 C344.3281,277.3125 344.2969,277.5 344.1875,277.6563 C344.0156,277.875 343.75,278.0156 343.4844,278.0156 C343.2656,278.0156 343.0313,277.9063 342.8906,277.7656 C342.75,277.6406 342.7188,277.5156 342.6563,277.1094 C342.5625,276.7031 342.3906,276.4844 341.9063,276.2031 C341.4375,275.9531 340.8281,275.7969 340.25,275.7969 C338.5156,275.7969 337.2656,277.1094 337.2656,278.8906 L337.2656,279.9844 C337.2656,281.6875 338.5625,282.7813 340.6094,282.7813 C341.375,282.7813 342.0625,282.6563 342.4844,282.3906 C342.6719,282.2969 342.6719,282.2969 343.125,281.8125 C343.3125,281.625 343.5156,281.5469 343.7344,281.5469 C344.2031,281.5469 344.5938,281.9375 344.5938,282.3906 C344.5938,282.7813 344.2656,283.2344 343.6875,283.6406 C342.9375,284.1875 341.7813,284.4844 340.5625,284.4844 C337.6719,284.4844 335.5625,282.5938 335.5625,280.0156 L335.5625,278.8906 C335.5625,276.1719 337.5625,274.0938 340.1875,274.0938 C341.0625,274.0938 341.6563,274.2344 342.5938,274.6719 Z "/><text fill="#000000" font-family="sans-serif" font-size="12" lengthAdjust="spacingAndGlyphs" textLength="105" x="360.75" y="282.7">InsideFilterSelector</text><line style="stroke: #A80036; stroke-width: 1.5;" x1="276" x2="518" y1="295" y2="295"/><line style="stroke: #A80036; stroke-width: 1.5;" x1="276" x2="518" y1="303" y2="303"/><ellipse cx="286" cy="314" fill="#84BE84" rx="3" ry="3" style="stroke: #038048; stroke-width: 1.0;"/><text fill="#000000" font-family="sans-serif" font-size="11" lengthAdjust="spacingAndGlyphs" textLength="178" x="295" y="315.8893">InsideFilterSelector inside(selector)</text><ellipse cx="286" cy="325" fill="#84BE84" rx="3" ry="3" style="stroke: #038048; stroke-width: 1.0;"/><text fill="#000000" font-family="sans-serif" font-size="11" lengthAdjust="spacingAndGlyphs" textLength="185" x="295" y="326.8893">InsideFilterSelector outside(selector)</text><ellipse cx="286" cy="336" fill="#84BE84" rx="3" ry="3" style="stroke: #038048; stroke-width: 1.0;"/><text fill="#000000" font-family="sans-serif" font-size="11" lengthAdjust="spacingAndGlyphs" textLength="199" x="295" y="337.8893">InsideFilterSelector containing(selector)</text><ellipse cx="286" cy="347" fill="#84BE84" rx="3" ry="3" style="stroke: #038048; stroke-width: 1.0;"/><text fill="#000000" font-family="sans-serif" font-size="11" lengthAdjust="spacingAndGlyphs" textLength="218" x="295" y="348.8893">InsideFilterSelector containing_all(selector)</text><ellipse cx="286" cy="358" fill="#84BE84" rx="3" ry="3" style="stroke: #038048; stroke-width: 1.0;"/><text fill="#000000" font-family="sans-serif" font-size="11" lengthAdjust="spacingAndGlyphs" textLength="192" x="295" y="359.8893">InsideFilterSelector without_children()</text><path d="M184.978,219.855 C173.641,236.984 162.545,253.75 152.946,268.2529 " fill="none" style="stroke: #A80036; stroke-width: 1.0;"/><polygon fill="none" points="179.237,215.845,196.113,203.031,190.912,223.572,179.237,215.845" style="stroke: #A80036; stroke-width: 1.0;"/><path d="M335.114,219.993 C345.026,234.971 354.753,249.667 363.452,262.81 " fill="none" style="stroke: #A80036; stroke-width: 1.0;"/><polygon fill="none" points="329.088,223.572,323.887,203.031,340.763,215.845,329.088,223.572" style="stroke: #A80036; stroke-width: 1.0;"/></g></svg>