<?xml version="1.0" encoding="UTF-8" standalone="yes"?><svg xmlns="http://www.w3.org/2000/svg" xmlns:xlink="http://www.w3.org/1999/xlink" height="228px" style="width:370px;height:228px;" version="1.1" viewBox="0 0 370 228" width="370px"><defs><filter height="300%" id="f1" width="300%" x="-1" y="-1"><feGaussianBlur result="blurOut" stdDeviation="2.0"/><feColorMatrix in="blurOut" result="blurOut2" type="matrix" values="0 0 0 0 0 0 0 0 0 0 0 0 0 0 0 0 0 0 .4 0"/><feOffset dx="4.0" dy="4.0" in="blurOut2" result="blurOut3"/><feBlend in="SourceGraphic" in2="blurOut3" mode="normal"/></filter></defs><g><rect fill="#FEFECE" filter="url(#f1)" height="102.9316" style="stroke: #A80036; stroke-width: 1.5;" width="315" x="30.5" y="8"/><ellipse cx="139.25" cy="24" fill="#ADD1B2" rx="11" ry="11" style="stroke: #A80036; stroke-width: 1.0;"/><path d="M141.5938,19.6719 L141.7656,19.75 C141.9844,19.4375 142.1875,19.3438 142.4844,19.3438 C142.7813,19.3438 143.0625,19.4844 143.2188,19.75 C143.3125,19.9063 143.3281,20.0313 143.3281,20.4688 L143.3281,21.8906 C143.3281,22.3125 143.2969,22.5 143.1875,22.6563 C143.0156,22.875 142.75,23.0156 142.4844,23.0156 C142.2656,23.0156 142.0313,22.9063 141.8906,22.7656 C141.75,22.6406 141.7188,22.5156 141.6563,22.1094 C141.5625,21.7031 141.3906,21.4844 140.9063,21.2031 C140.4375,20.9531 139.8281,20.7969 139.25,20.7969 C137.5156,20.7969 136.2656,22.1094 136.2656,23.8906 L136.2656,24.9844 C136.2656,26.6875 137.5625,27.7813 139.6094,27.7813 C140.375,27.7813 141.0625,27.6563 141.4844,27.3906 C141.6719,27.2969 141.6719,27.2969 142.125,26.8125 C142.3125,26.625 142.5156,26.5469 142.7344,26.5469 C143.2031,26.5469 143.5938,26.9375 143.5938,27.3906 C143.5938,27.7813 143.2656,28.2344 142.6875,28.6406 C141.9375,29.1875 140.7813,29.4844 139.5625,29.4844 C136.6719,29.4844 134.5625,27.5938 134.5625,25.0156 L134.5625,23.8906 C134.5625,21.1719 136.5625,19.0938 139.1875,19.0938 C140.0625,19.0938 140.6563,19.2344 141.5938,19.6719 Z "/><text fill="#000000" font-family="sans-serif" font-size="12" lengthAdjust="spacingAndGlyphs" textLength="89" x="159.75" y="27.7">DeferredLocator</text><line style="stroke: #A80036; stroke-width: 1.5;" x1="31.5" x2="344.5" y1="40" y2="40"/><line style="stroke: #A80036; stroke-width: 1.5;" x1="31.5" x2="344.5" y1="48" y2="48"/><ellipse cx="41.5" cy="59" fill="#84BE84" rx="3" ry="3" style="stroke: #038048; stroke-width: 1.0;"/><text fill="#000000" font-family="sans-serif" font-size="11" lengthAdjust="spacingAndGlyphs" textLength="151" x="50.5" y="60.8893">__call__() : list&lt;WebElement&gt;</text><ellipse cx="41.5" cy="70" fill="#84BE84" rx="3" ry="3" style="stroke: #038048; stroke-width: 1.0;"/><text fill="#000000" font-family="sans-serif" font-size="11" lengthAdjust="spacingAndGlyphs" textLength="227" x="50.5" y="71.8893">element(only_visible: boolean) : WebElement</text><ellipse cx="41.5" cy="81" fill="#84BE84" rx="3" ry="3" style="stroke: #038048; stroke-width: 1.0;"/><text fill="#000000" font-family="sans-serif" font-size="11" lengthAdjust="spacingAndGlyphs" textLength="274" x="50.5" y="82.8893">element_list(only_visible: boolean) : list&lt;WebElement&gt;</text><polygon fill="#FFFF44" points="41.5,87,45.5,91,41.5,95,37.5,91" style="stroke: #B38D22; stroke-width: 1.0;"/><text fill="#000000" font-family="sans-serif" font-size="11" font-style="italic" lengthAdjust="spacingAndGlyphs" textLength="245" x="50.5" y="93.8893">_find_element(only_visible: boolean) : WebElement</text><polygon fill="#FFFF44" points="41.5,98,45.5,102,41.5,106,37.5,102" style="stroke: #B38D22; stroke-width: 1.0;"/><text fill="#000000" font-family="sans-serif" font-size="11" font-style="italic" lengthAdjust="spacingAndGlyphs" textLength="289" x="50.5" y="104.8893">_find_element_list(only_visible: boolean) : list&lt;WebElement&gt;</text><rect fill="#FEFECE" filter="url(#f1)" height="48" style="stroke: #A80036; stroke-width: 1.5;" width="94" x="6" y="171"/><ellipse cx="21" cy="187" fill="#ADD1B2" rx="11" ry="11" style="stroke: #A80036; stroke-width: 1.0;"/><path d="M23.3438,182.6719 L23.5156,182.75 C23.7344,182.4375 23.9375,182.3438 24.2344,182.3438 C24.5313,182.3438 24.8125,182.4844 24.9688,182.75 C25.0625,182.9063 25.0781,183.0313 25.0781,183.4688 L25.0781,184.8906 C25.0781,185.3125 25.0469,185.5 24.9375,185.6563 C24.7656,185.875 24.5,186.0156 24.2344,186.0156 C24.0156,186.0156 23.7813,185.9063 23.6406,185.7656 C23.5,185.6406 23.4688,185.5156 23.4063,185.1094 C23.3125,184.7031 23.1406,184.4844 22.6563,184.2031 C22.1875,183.9531 21.5781,183.7969 21,183.7969 C19.2656,183.7969 18.0156,185.1094 18.0156,186.8906 L18.0156,187.9844 C18.0156,189.6875 19.3125,190.7813 21.3594,190.7813 C22.125,190.7813 22.8125,190.6563 23.2344,190.3906 C23.4219,190.2969 23.4219,190.2969 23.875,189.8125 C24.0625,189.625 24.2656,189.5469 24.4844,189.5469 C24.9531,189.5469 25.3438,189.9375 25.3438,190.3906 C25.3438,190.7813 25.0156,191.2344 24.4375,191.6406 C23.6875,192.1875 22.5313,192.4844 21.3125,192.4844 C18.4219,192.4844 16.3125,190.5938 16.3125,188.0156 L16.3125,186.8906 C16.3125,184.1719 18.3125,182.0938 20.9375,182.0938 C21.8125,182.0938 22.4063,182.2344 23.3438,182.6719 Z "/><text fill="#000000" font-family="sans-serif" font-size="12" lengthAdjust="spacingAndGlyphs" textLength="62" x="35" y="190.7">CssLocator</text><line style="stroke: #A80036; stroke-width: 1.5;" x1="7" x2="99" y1="203" y2="203"/><line style="stroke: #A80036; stroke-width: 1.5;" x1="7" x2="99" y1="211" y2="211"/><rect fill="#FEFECE" filter="url(#f1)" height="48" style="stroke: #A80036; stroke-width: 1.5;" width="106" x="135" y="171"/><ellipse cx="150" cy="187" fill="#ADD1B2" rx="11" ry="11" style="stroke: #A80036; stroke-width: 1.0;"/><path d="M152.3438,182.6719 L152.5156,182.75 C152.7344,182.4375 152.9375,182.3438 153.2344,182.3438 C153.5313,182.3438 153.8125,182.4844 153.9688,182.75 C154.0625,182.9063 154.0781,183.0313 154.0781,183.4688 L154.0781,184.8906 C154.0781,185.3125 154.0469,185.5 153.9375,185.6563 C153.7656,185.875 153.5,186.0156 153.2344,186.0156 C153.0156,186.0156 152.7813,185.9063 152.6406,185.7656 C152.5,185.6406 152.4688,185.5156 152.4063,185.1094 C152.3125,184.7031 152.1406,184.4844 151.6563,184.2031 C151.1875,183.9531 150.5781,183.7969 150,183.7969 C148.2656,183.7969 147.0156,185.1094 147.0156,186.8906 L147.0156,187.9844 C147.0156,189.6875 148.3125,190.7813 150.3594,190.7813 C151.125,190.7813 151.8125,190.6563 152.2344,190.3906 C152.4219,190.2969 152.4219,190.2969 152.875,189.8125 C153.0625,189.625 153.2656,189.5469 153.4844,189.5469 C153.9531,189.5469 154.3438,189.9375 154.3438,190.3906 C154.3438,190.7813 154.0156,191.2344 153.4375,191.6406 C152.6875,192.1875 151.5313,192.4844 150.3125,192.4844 C147.4219,192.4844 145.3125,190.5938 145.3125,188.0156 L145.3125,186.8906 C145.3125,184.1719 147.3125,182.0938 149.9375,182.0938 C150.8125,182.0938 151.4063,182.2344 152.3438,182.6719 Z "/><text fill="#000000" font-family="sans-serif" font-size="12" lengthAdjust="spacingAndGlyphs" textLength="74" x="164" y="190.7">XPathLocator</text><line style="stroke: #A80036; stroke-width: 1.5;" x1="136" x2="240" y1="203" y2="203"/><line style="stroke: #A80036; stroke-width: 1.5;" x1="136" x2="240" y1="211" y2="211"/><rect fill="#FEFECE" filter="url(#f1)" height="48" style="stroke: #A80036; stroke-width: 1.5;" width="85" x="276.5" y="171"/><ellipse cx="291.5" cy="187" fill="#ADD1B2" rx="11" ry="11" style="stroke: #A80036; stroke-width: 1.0;"/><path d="M293.8438,182.6719 L294.0156,182.75 C294.2344,182.4375 294.4375,182.3438 294.7344,182.3438 C295.0313,182.3438 295.3125,182.4844 295.4688,182.75 C295.5625,182.9063 295.5781,183.0313 295.5781,183.4688 L295.5781,184.8906 C295.5781,185.3125 295.5469,185.5 295.4375,185.6563 C295.2656,185.875 295,186.0156 294.7344,186.0156 C294.5156,186.0156 294.2813,185.9063 294.1406,185.7656 C294,185.6406 293.9688,185.5156 293.9063,185.1094 C293.8125,184.7031 293.6406,184.4844 293.1563,184.2031 C292.6875,183.9531 292.0781,183.7969 291.5,183.7969 C289.7656,183.7969 288.5156,185.1094 288.5156,186.8906 L288.5156,187.9844 C288.5156,189.6875 289.8125,190.7813 291.8594,190.7813 C292.625,190.7813 293.3125,190.6563 293.7344,190.3906 C293.9219,190.2969 293.9219,190.2969 294.375,189.8125 C294.5625,189.625 294.7656,189.5469 294.9844,189.5469 C295.4531,189.5469 295.8438,189.9375 295.8438,190.3906 C295.8438,190.7813 295.5156,191.2344 294.9375,191.6406 C294.1875,192.1875 293.0313,192.4844 291.8125,192.4844 C288.9219,192.4844 286.8125,190.5938 286.8125,188.0156 L286.8125,186.8906 C286.8125,184.1719 288.8125,182.0938 291.4375,182.0938 C292.3125,182.0938 292.9063,182.2344 293.8438,182.6719 Z "/><text fill="#000000" font-family="sans-serif" font-size="12" lengthAdjust="spacingAndGlyphs" textLength="53" x="305.5" y="190.7">JsLocator</text><line style="stroke: #A80036; stroke-width: 1.5;" x1="277.5" x2="360.5" y1="203" y2="203"/><line style="stroke: #A80036; stroke-width: 1.5;" x1="277.5" x2="360.5" y1="211" y2="211"/><path d="M122.265,125.5042 C105.8271,141.7599 89.249,158.1537 76.4345,170.8259 " fill="none" style="stroke: #A80036; stroke-width: 1.0;"/><polygon fill="none" points="117.434,120.4371,136.577,111.351,127.278,130.3917,117.434,120.4371" style="stroke: #A80036; stroke-width: 1.0;"/><path d="M188,131.4146 C188,145.6795 188,159.6898 188,170.8259 " fill="none" style="stroke: #A80036; stroke-width: 1.0;"/><polygon fill="none" points="181,131.3515,188,111.351,195,131.3514,181,131.3515" style="stroke: #A80036; stroke-width: 1.0;"/><path d="M252.27,125.9968 C268.063,142.0907 283.951,158.2817 296.26,170.8259 " fill="none" style="stroke: #A80036; stroke-width: 1.0;"/><polygon fill="none" points="246.911,130.5294,237.899,111.351,256.903,120.7239,246.911,130.5294" style="stroke: #A80036; stroke-width: 1.0;"/></g></svg>