<?xml version="1.0" encoding="UTF-8" standalone="yes"?><svg xmlns="http://www.w3.org/2000/svg" xmlns:xlink="http://www.w3.org/1999/xlink" height="352px" style="width:528px;height:352px;" version="1.1" viewBox="0 0 528 352" width="528px"><defs><filter height="300%" id="f1" width="300%" x="-1" y="-1"><feGaussianBlur result="blurOut" stdDeviation="2.0"/><feColorMatrix in="blurOut" result="blurOut2" type="matrix" values="0 0 0 0 0 0 0 0 0 0 0 0 0 0 0 0 0 0 .4 0"/><feOffset dx="4.0" dy="4.0" in="blurOut2" result="blurOut3"/><feBlend in="SourceGraphic" in2="blurOut3" mode="normal"/></filter></defs><g><rect fill="#FEFECE" filter="url(#f1)" height="183.8359" style="stroke: #A80036; stroke-width: 1.5;" width="244" x="138" y="8"/><ellipse cx="211.75" cy="24" fill="#ADD1B2" rx="11" ry="11" style="stroke: #A80036; stroke-width: 1.0;"/><path d="M214.0938,19.6719 L214.2656,19.75 C214.4844,19.4375 214.6875,19.3438 214.9844,19.3438 C215.2813,19.3438 215.5625,19.4844 215.7188,19.75 C215.8125,19.9063 215.8281,20.0313 215.8281,20.4688 L215.8281,21.8906 C215.8281,22.3125 215.7969,22.5 215.6875,22.6563 C215.5156,22.875 215.25,23.0156 214.9844,23.0156 C214.7656,23.0156 214.5313,22.9063 214.3906,22.7656 C214.25,22.6406 214.2188,22.5156 214.1563,22.1094 C214.0625,21.7031 213.8906,21.4844 213.4063,21.2031 C212.9375,20.9531 212.3281,20.7969 211.75,20.7969 C210.0156,20.7969 208.7656,22.1094 208.7656,23.8906 L208.7656,24.9844 C208.7656,26.6875 210.0625,27.7813 212.1094,27.7813 C212.875,27.7813 213.5625,27.6563 213.9844,27.3906 C214.1719,27.2969 214.1719,27.2969 214.625,26.8125 C214.8125,26.625 215.0156,26.5469 215.2344,26.5469 C215.7031,26.5469 216.0938,26.9375 216.0938,27.3906 C216.0938,27.7813 215.7656,28.2344 215.1875,28.6406 C214.4375,29.1875 213.2813,29.4844 212.0625,29.4844 C209.1719,29.4844 207.0625,27.5938 207.0625,25.0156 L207.0625,23.8906 C207.0625,21.1719 209.0625,19.0938 211.6875,19.0938 C212.5625,19.0938 213.1563,19.2344 214.0938,19.6719 Z "/><text fill="#000000" font-family="sans-serif" font-size="12" lengthAdjust="spacingAndGlyphs" textLength="88" x="232.25" y="27.7">AbstractSelector</text><line style="stroke: #A80036; stroke-width: 1.5;" x1="139" x2="381" y1="40" y2="40"/><ellipse cx="149" cy="65.9863" fill="#84BE84" rx="3" ry="3" style="stroke: #038048; stroke-width: 1.0;"/><text fill="#000000" font-family="sans-serif" font-size="11" font-style="italic" lengthAdjust="spacingAndGlyphs" textLength="132" x="158" y="67.8756">List&lt;string&gt; get_selectors()</text><line style="stroke: #A80036; stroke-width: 1.0;" x1="139" x2="207.5" y1="53.4932" y2="53.4932"/><text fill="#000000" font-family="sans-serif" font-size="11" lengthAdjust="spacingAndGlyphs" textLength="105" x="207.5" y="56.3824">method to implement</text><line style="stroke: #A80036; stroke-width: 1.0;" x1="312.5" x2="381" y1="53.4932" y2="53.4932"/><ellipse cx="149" cy="91.959" fill="#84BE84" rx="3" ry="3" style="stroke: #038048; stroke-width: 1.0;"/><text fill="#000000" font-family="sans-serif" font-size="11" lengthAdjust="spacingAndGlyphs" textLength="201" x="158" y="93.8483">PositionalFilterSelector left_of(selector)</text><ellipse cx="149" cy="102.959" fill="#84BE84" rx="3" ry="3" style="stroke: #038048; stroke-width: 1.0;"/><text fill="#000000" font-family="sans-serif" font-size="11" lengthAdjust="spacingAndGlyphs" textLength="208" x="158" y="104.8483">PositionalFilterSelector right_of(selector)</text><ellipse cx="149" cy="113.959" fill="#84BE84" rx="3" ry="3" style="stroke: #038048; stroke-width: 1.0;"/><text fill="#000000" font-family="sans-serif" font-size="11" lengthAdjust="spacingAndGlyphs" textLength="199" x="158" y="115.8483">PositionalFilterSelector below(selector)</text><ellipse cx="149" cy="124.959" fill="#84BE84" rx="3" ry="3" style="stroke: #038048; stroke-width: 1.0;"/><text fill="#000000" font-family="sans-serif" font-size="11" lengthAdjust="spacingAndGlyphs" textLength="200" x="158" y="126.8483">PositionalFilterSelector above(selector)</text><line style="stroke: #A80036; stroke-width: 1.0;" x1="139" x2="215.5" y1="79.4658" y2="79.4658"/><text fill="#000000" font-family="sans-serif" font-size="11" lengthAdjust="spacingAndGlyphs" textLength="89" x="215.5" y="82.3551">positional filtering</text><line style="stroke: #A80036; stroke-width: 1.0;" x1="304.5" x2="381" y1="79.4658" y2="79.4658"/><ellipse cx="149" cy="150.8906" fill="#84BE84" rx="3" ry="3" style="stroke: #038048; stroke-width: 1.0;"/><text fill="#000000" font-family="sans-serif" font-size="11" lengthAdjust="spacingAndGlyphs" textLength="178" x="158" y="152.7799">InsideFilterSelector inside(selector)</text><ellipse cx="149" cy="161.8906" fill="#84BE84" rx="3" ry="3" style="stroke: #038048; stroke-width: 1.0;"/><text fill="#000000" font-family="sans-serif" font-size="11" lengthAdjust="spacingAndGlyphs" textLength="199" x="158" y="163.7799">InsideFilterSelector containing(selector)</text><ellipse cx="149" cy="172.8906" fill="#84BE84" rx="3" ry="3" style="stroke: #038048; stroke-width: 1.0;"/><text fill="#000000" font-family="sans-serif" font-size="11" lengthAdjust="spacingAndGlyphs" textLength="218" x="158" y="174.7799">InsideFilterSelector containing_all(selector)</text><ellipse cx="149" cy="183.8906" fill="#84BE84" rx="3" ry="3" style="stroke: #038048; stroke-width: 1.0;"/><text fill="#000000" font-family="sans-serif" font-size="11" lengthAdjust="spacingAndGlyphs" textLength="192" x="158" y="185.7799">InsideFilterSelector without_children()</text><line style="stroke: #A80036; stroke-width: 1.0;" x1="139" x2="211" y1="138.3975" y2="138.3975"/><text fill="#000000" font-family="sans-serif" font-size="11" lengthAdjust="spacingAndGlyphs" textLength="98" x="211" y="141.2867">parent/child filtering</text><line style="stroke: #A80036; stroke-width: 1.0;" x1="309" x2="381" y1="138.3975" y2="138.3975"/><rect fill="#FEFECE" filter="url(#f1)" height="91.9453" style="stroke: #A80036; stroke-width: 1.5;" width="234" x="6" y="252"/><ellipse cx="55.75" cy="268" fill="#ADD1B2" rx="11" ry="11" style="stroke: #A80036; stroke-width: 1.0;"/><path d="M58.0938,263.6719 L58.2656,263.75 C58.4844,263.4375 58.6875,263.3438 58.9844,263.3438 C59.2813,263.3438 59.5625,263.4844 59.7188,263.75 C59.8125,263.9063 59.8281,264.0313 59.8281,264.4688 L59.8281,265.8906 C59.8281,266.3125 59.7969,266.5 59.6875,266.6563 C59.5156,266.875 59.25,267.0156 58.9844,267.0156 C58.7656,267.0156 58.5313,266.9063 58.3906,266.7656 C58.25,266.6406 58.2188,266.5156 58.1563,266.1094 C58.0625,265.7031 57.8906,265.4844 57.4063,265.2031 C56.9375,264.9531 56.3281,264.7969 55.75,264.7969 C54.0156,264.7969 52.7656,266.1094 52.7656,267.8906 L52.7656,268.9844 C52.7656,270.6875 54.0625,271.7813 56.1094,271.7813 C56.875,271.7813 57.5625,271.6563 57.9844,271.3906 C58.1719,271.2969 58.1719,271.2969 58.625,270.8125 C58.8125,270.625 59.0156,270.5469 59.2344,270.5469 C59.7031,270.5469 60.0938,270.9375 60.0938,271.3906 C60.0938,271.7813 59.7656,272.2344 59.1875,272.6406 C58.4375,273.1875 57.2813,273.4844 56.0625,273.4844 C53.1719,273.4844 51.0625,271.5938 51.0625,269.0156 L51.0625,267.8906 C51.0625,265.1719 53.0625,263.0938 55.6875,263.0938 C56.5625,263.0938 57.1563,263.2344 58.0938,263.6719 Z "/><text fill="#000000" font-family="sans-serif" font-size="12" lengthAdjust="spacingAndGlyphs" textLength="126" x="76.25" y="271.7">PositionalFilterSelector</text><line style="stroke: #A80036; stroke-width: 1.5;" x1="7" x2="239" y1="284" y2="284"/><line style="stroke: #A80036; stroke-width: 1.5;" x1="7" x2="239" y1="292" y2="292"/><ellipse cx="17" cy="303" fill="#84BE84" rx="3" ry="3" style="stroke: #038048; stroke-width: 1.0;"/><text fill="#000000" font-family="sans-serif" font-size="11" lengthAdjust="spacingAndGlyphs" textLength="201" x="26" y="304.8893">PositionalFilterSelector left_of(selector)</text><ellipse cx="17" cy="314" fill="#84BE84" rx="3" ry="3" style="stroke: #038048; stroke-width: 1.0;"/><text fill="#000000" font-family="sans-serif" font-size="11" lengthAdjust="spacingAndGlyphs" textLength="208" x="26" y="315.8893">PositionalFilterSelector right_of(selector)</text><ellipse cx="17" cy="325" fill="#84BE84" rx="3" ry="3" style="stroke: #038048; stroke-width: 1.0;"/><text fill="#000000" font-family="sans-serif" font-size="11" lengthAdjust="spacingAndGlyphs" textLength="199" x="26" y="326.8893">PositionalFilterSelector below(selector)</text><ellipse cx="17" cy="336" fill="#84BE84" rx="3" ry="3" style="stroke: #038048; stroke-width: 1.0;"/><text fill="#000000" font-family="sans-serif" font-size="11" lengthAdjust="spacingAndGlyphs" textLength="200" x="26" y="337.8893">PositionalFilterSelector above(selector)</text><rect fill="#FEFECE" filter="url(#f1)" height="91.9453" style="stroke: #A80036; stroke-width: 1.5;" width="244" x="275" y="252"/><ellipse cx="340.25" cy="268" fill="#ADD1B2" rx="11" ry="11" style="stroke: #A80036; stroke-width: 1.0;"/><path d="M342.5938,263.6719 L342.7656,263.75 C342.9844,263.4375 343.1875,263.3438 343.4844,263.3438 C343.7813,263.3438 344.0625,263.4844 344.2188,263.75 C344.3125,263.9063 344.3281,264.0313 344.3281,264.4688 L344.3281,265.8906 C344.3281,266.3125 344.2969,266.5 344.1875,266.6563 C344.0156,266.875 343.75,267.0156 343.4844,267.0156 C343.2656,267.0156 343.0313,266.9063 342.8906,266.7656 C342.75,266.6406 342.7188,266.5156 342.6563,266.1094 C342.5625,265.7031 342.3906,265.4844 341.9063,265.2031 C341.4375,264.9531 340.8281,264.7969 340.25,264.7969 C338.5156,264.7969 337.2656,266.1094 337.2656,267.8906 L337.2656,268.9844 C337.2656,270.6875 338.5625,271.7813 340.6094,271.7813 C341.375,271.7813 342.0625,271.6563 342.4844,271.3906 C342.6719,271.2969 342.6719,271.2969 343.125,270.8125 C343.3125,270.625 343.5156,270.5469 343.7344,270.5469 C344.2031,270.5469 344.5938,270.9375 344.5938,271.3906 C344.5938,271.7813 344.2656,272.2344 343.6875,272.6406 C342.9375,273.1875 341.7813,273.4844 340.5625,273.4844 C337.6719,273.4844 335.5625,271.5938 335.5625,269.0156 L335.5625,267.8906 C335.5625,265.1719 337.5625,263.0938 340.1875,263.0938 C341.0625,263.0938 341.6563,263.2344 342.5938,263.6719 Z "/><text fill="#000000" font-family="sans-serif" font-size="12" lengthAdjust="spacingAndGlyphs" textLength="105" x="360.75" y="271.7">InsideFilterSelector</text><line style="stroke: #A80036; stroke-width: 1.5;" x1="276" x2="518" y1="284" y2="284"/><line style="stroke: #A80036; stroke-width: 1.5;" x1="276" x2="518" y1="292" y2="292"/><ellipse cx="286" cy="303" fill="#84BE84" rx="3" ry="3" style="stroke: #038048; stroke-width: 1.0;"/><text fill="#000000" font-family="sans-serif" font-size="11" lengthAdjust="spacingAndGlyphs" textLength="178" x="295" y="304.8893">InsideFilterSelector inside(selector)</text><ellipse cx="286" cy="314" fill="#84BE84" rx="3" ry="3" style="stroke: #038048; stroke-width: 1.0;"/><text fill="#000000" font-family="sans-serif" font-size="11" lengthAdjust="spacingAndGlyphs" textLength="199" x="295" y="315.8893">InsideFilterSelector containing(selector)</text><ellipse cx="286" cy="325" fill="#84BE84" rx="3" ry="3" style="stroke: #038048; stroke-width: 1.0;"/><text fill="#000000" font-family="sans-serif" font-size="11" lengthAdjust="spacingAndGlyphs" textLength="218" x="295" y="326.8893">InsideFilterSelector containing_all(selector)</text><ellipse cx="286" cy="336" fill="#84BE84" rx="3" ry="3" style="stroke: #038048; stroke-width: 1.0;"/><text fill="#000000" font-family="sans-serif" font-size="11" lengthAdjust="spacingAndGlyphs" textLength="192" x="295" y="337.8893">InsideFilterSelector without_children()</text><path d="M184.719,208.702 C174.068,223.939 163.639,238.86 154.474,251.9722 " fill="none" style="stroke: #A80036; stroke-width: 1.0;"/><polygon fill="none" points="179.117,204.497,196.313,192.114,190.592,212.517,179.117,204.497" style="stroke: #A80036; stroke-width: 1.0;"/><path d="M335.281,208.702 C345.932,223.939 356.361,238.86 365.526,251.9722 " fill="none" style="stroke: #A80036; stroke-width: 1.0;"/><polygon fill="none" points="329.408,212.517,323.687,192.114,340.883,204.497,329.408,212.517" style="stroke: #A80036; stroke-width: 1.0;"/></g></svg>