<?xml version="1.0" encoding="UTF-8" standalone="no"?><svg xmlns="http://www.w3.org/2000/svg" xmlns:xlink="http://www.w3.org/1999/xlink" contentScriptType="application/ecmascript" contentStyleType="text/css" height="454px" preserveAspectRatio="none" style="width:235px;height:454px;" version="1.1" viewBox="0 0 235 454" width="235px" zoomAndPan="magnify"><defs><filter height="300%" id="fxakbt5" width="300%" x="-1" y="-1"><feGaussianBlur result="blurOut" stdDeviation="2.0"/><feColorMatrix in="blurOut" result="blurOut2" type="matrix" values="0 0 0 0 0 0 0 0 0 0 0 0 0 0 0 0 0 0 .4 0"/><feOffset dx="4.0" dy="4.0" in="blurOut2" result="blurOut3"/><feBlend in="SourceGraphic" in2="blurOut3" mode="normal"/></filter></defs><g><!--class Box--><rect fill="#FEFECE" filter="url(#fxakbt5)" height="271.7266" style="stroke: #A80036; stroke-width: 1.5;" width="220" x="6" y="8"/><ellipse cx="101.25" cy="24" fill="#ADD1B2" rx="11" ry="11" style="stroke: #A80036; stroke-width: 1.0;"/><path d="M103.5938,19.6719 L103.7656,19.75 C103.9844,19.4375 104.1875,19.3438 104.4844,19.3438 C104.7813,19.3438 105.0625,19.4844 105.2188,19.75 C105.3125,19.9063 105.3281,20.0313 105.3281,20.4688 L105.3281,21.8906 C105.3281,22.3125 105.2969,22.5 105.1875,22.6563 C105.0156,22.875 104.75,23.0156 104.4844,23.0156 C104.2656,23.0156 104.0313,22.9063 103.8906,22.7656 C103.75,22.6406 103.7188,22.5156 103.6563,22.1094 C103.5625,21.7031 103.3906,21.4844 102.9063,21.2031 C102.4375,20.9531 101.8281,20.7969 101.25,20.7969 C99.5156,20.7969 98.2656,22.1094 98.2656,23.8906 L98.2656,24.9844 C98.2656,26.6875 99.5625,27.7813 101.6094,27.7813 C102.375,27.7813 103.0625,27.6563 103.4844,27.3906 C103.6719,27.2969 103.6719,27.2969 104.125,26.8125 C104.3125,26.625 104.5156,26.5469 104.7344,26.5469 C105.2031,26.5469 105.5938,26.9375 105.5938,27.3906 C105.5938,27.7813 105.2656,28.2344 104.6875,28.6406 C103.9375,29.1875 102.7813,29.4844 101.5625,29.4844 C98.6719,29.4844 96.5625,27.5938 96.5625,25.0156 L96.5625,23.8906 C96.5625,21.1719 98.5625,19.0938 101.1875,19.0938 C102.0625,19.0938 102.6563,19.2344 103.5938,19.6719 Z "/><text fill="#000000" font-family="sans-serif" font-size="12" lengthAdjust="spacingAndGlyphs" textLength="21" x="121.75" y="27.7">Box</text><line style="stroke: #A80036; stroke-width: 1.5;" x1="7" x2="225" y1="40" y2="40"/><text fill="#000000" font-family="sans-serif" font-size="11" lengthAdjust="spacingAndGlyphs" textLength="68" x="12" y="52.8824">Box(selector)</text><text fill="#000000" font-family="sans-serif" font-size="11" lengthAdjust="spacingAndGlyphs" textLength="174" x="12" y="78.8551">top_left(adjust_x, adjust_y) : Point</text><text fill="#000000" font-family="sans-serif" font-size="11" lengthAdjust="spacingAndGlyphs" textLength="189" x="12" y="89.8414">top_center(adjust_x, adjust_y) : Point</text><text fill="#000000" font-family="sans-serif" font-size="11" lengthAdjust="spacingAndGlyphs" textLength="181" x="12" y="100.8278">top_right(adjust_x, adjust_y) : Point</text><text fill="#000000" font-family="sans-serif" font-size="11" lengthAdjust="spacingAndGlyphs" textLength="193" x="12" y="111.8141">middle_left(adjust_x, adjust_y) : Point</text><text fill="#000000" font-family="sans-serif" font-size="11" lengthAdjust="spacingAndGlyphs" textLength="200" x="12" y="122.8004">middle_right(adjust_x, adjust_y) : Point</text><text fill="#000000" font-family="sans-serif" font-size="11" lengthAdjust="spacingAndGlyphs" textLength="193" x="12" y="133.7867">bottom_left(adjust_x, adjust_y) : Point</text><text fill="#000000" font-family="sans-serif" font-size="11" lengthAdjust="spacingAndGlyphs" textLength="208" x="12" y="144.7731">bottom_center(adjust_x, adjust_y) : Point</text><text fill="#000000" font-family="sans-serif" font-size="11" lengthAdjust="spacingAndGlyphs" textLength="200" x="12" y="155.7594">bottom_right(adjust_x, adjust_y) : Point</text><text fill="#000000" font-family="sans-serif" font-size="11" lengthAdjust="spacingAndGlyphs" textLength="166" x="12" y="166.7457">center(adjust_x, adjust_y) : Point</text><line style="stroke: #A80036; stroke-width: 1.0; stroke-dasharray: 1.0,2.0;" x1="7" x2="78" y1="64.4795" y2="64.4795"/><text fill="#000000" font-family="sans-serif" font-size="11" lengthAdjust="spacingAndGlyphs" textLength="76" x="78" y="67.3688">points methods</text><line style="stroke: #A80036; stroke-width: 1.0; stroke-dasharray: 1.0,2.0;" x1="154" x2="225" y1="64.4795" y2="64.4795"/><text fill="#000000" font-family="sans-serif" font-size="11" lengthAdjust="spacingAndGlyphs" textLength="98" x="12" y="192.7184">width(self) : number</text><text fill="#000000" font-family="sans-serif" font-size="11" lengthAdjust="spacingAndGlyphs" textLength="101" x="12" y="203.7047">height(self) : number</text><text fill="#000000" font-family="sans-serif" font-size="11" lengthAdjust="spacingAndGlyphs" textLength="86" x="12" y="214.691">left(self) : number</text><text fill="#000000" font-family="sans-serif" font-size="11" lengthAdjust="spacingAndGlyphs" textLength="93" x="12" y="225.6774">right(self) : number</text><text fill="#000000" font-family="sans-serif" font-size="11" lengthAdjust="spacingAndGlyphs" textLength="87" x="12" y="236.6637">top(self) : number</text><text fill="#000000" font-family="sans-serif" font-size="11" lengthAdjust="spacingAndGlyphs" textLength="106" x="12" y="247.65">bottom(self) : number</text><line style="stroke: #A80036; stroke-width: 1.0; stroke-dasharray: 1.0,2.0;" x1="7" x2="83.5" y1="178.3428" y2="178.3428"/><text fill="#000000" font-family="sans-serif" font-size="11" lengthAdjust="spacingAndGlyphs" textLength="65" x="83.5" y="181.2321">size methods</text><line style="stroke: #A80036; stroke-width: 1.0; stroke-dasharray: 1.0,2.0;" x1="148.5" x2="225" y1="178.3428" y2="178.3428"/><text fill="#000000" font-family="sans-serif" font-size="11" lengthAdjust="spacingAndGlyphs" textLength="96" x="12" y="273.6227">get_box(self) : Box</text><line style="stroke: #A80036; stroke-width: 1.0; stroke-dasharray: 1.0,2.0;" x1="7" x2="74.5" y1="259.2471" y2="259.2471"/><text fill="#000000" font-family="sans-serif" font-size="11" lengthAdjust="spacingAndGlyphs" textLength="83" x="74.5" y="262.1364">box sizes refresh</text><line style="stroke: #A80036; stroke-width: 1.0; stroke-dasharray: 1.0,2.0;" x1="157.5" x2="225" y1="259.2471" y2="259.2471"/><!--class Point--><rect fill="#FEFECE" filter="url(#fxakbt5)" height="91.9453" style="stroke: #A80036; stroke-width: 1.5;" width="165" x="33.5" y="354"/><ellipse cx="97.75" cy="370" fill="#ADD1B2" rx="11" ry="11" style="stroke: #A80036; stroke-width: 1.0;"/><path d="M100.0938,365.6719 L100.2656,365.75 C100.4844,365.4375 100.6875,365.3438 100.9844,365.3438 C101.2813,365.3438 101.5625,365.4844 101.7188,365.75 C101.8125,365.9063 101.8281,366.0313 101.8281,366.4688 L101.8281,367.8906 C101.8281,368.3125 101.7969,368.5 101.6875,368.6563 C101.5156,368.875 101.25,369.0156 100.9844,369.0156 C100.7656,369.0156 100.5313,368.9063 100.3906,368.7656 C100.25,368.6406 100.2188,368.5156 100.1563,368.1094 C100.0625,367.7031 99.8906,367.4844 99.4063,367.2031 C98.9375,366.9531 98.3281,366.7969 97.75,366.7969 C96.0156,366.7969 94.7656,368.1094 94.7656,369.8906 L94.7656,370.9844 C94.7656,372.6875 96.0625,373.7813 98.1094,373.7813 C98.875,373.7813 99.5625,373.6563 99.9844,373.3906 C100.1719,373.2969 100.1719,373.2969 100.625,372.8125 C100.8125,372.625 101.0156,372.5469 101.2344,372.5469 C101.7031,372.5469 102.0938,372.9375 102.0938,373.3906 C102.0938,373.7813 101.7656,374.2344 101.1875,374.6406 C100.4375,375.1875 99.2813,375.4844 98.0625,375.4844 C95.1719,375.4844 93.0625,373.5938 93.0625,371.0156 L93.0625,369.8906 C93.0625,367.1719 95.0625,365.0938 97.6875,365.0938 C98.5625,365.0938 99.1563,365.2344 100.0938,365.6719 Z "/><text fill="#000000" font-family="sans-serif" font-size="12" lengthAdjust="spacingAndGlyphs" textLength="28" x="118.25" y="373.7">Point</text><line style="stroke: #A80036; stroke-width: 1.5;" x1="34.5" x2="197.5" y1="386" y2="386"/><ellipse cx="44.5" cy="397" fill="none" rx="3" ry="3" style="stroke: #038048; stroke-width: 1.0;"/><text fill="#000000" font-family="sans-serif" font-size="11" lengthAdjust="spacingAndGlyphs" textLength="52" x="53.5" y="398.8893">x : number</text><ellipse cx="44.5" cy="408" fill="none" rx="3" ry="3" style="stroke: #038048; stroke-width: 1.0;"/><text fill="#000000" font-family="sans-serif" font-size="11" lengthAdjust="spacingAndGlyphs" textLength="52" x="53.5" y="409.8893">y : number</text><line style="stroke: #A80036; stroke-width: 1.5;" x1="34.5" x2="197.5" y1="415.9727" y2="415.9727"/><ellipse cx="44.5" cy="426.9727" fill="#84BE84" rx="3" ry="3" style="stroke: #038048; stroke-width: 1.0;"/><text fill="#000000" font-family="sans-serif" font-size="11" lengthAdjust="spacingAndGlyphs" textLength="139" x="53.5" y="428.8619">adjust_x(x : number) : Point</text><ellipse cx="44.5" cy="437.9727" fill="#84BE84" rx="3" ry="3" style="stroke: #038048; stroke-width: 1.0;"/><text fill="#000000" font-family="sans-serif" font-size="11" lengthAdjust="spacingAndGlyphs" textLength="139" x="53.5" y="439.8619">adjust_y(y : number) : Point</text><path d="M116,280.181 C116,304.755 116,328.919 116,348.9722 " fill="none" style="stroke: #A80036; stroke-width: 1.0; stroke-dasharray: 7.0,7.0;"/><polygon fill="#A80036" points="116,353.9796,120,344.9796,116,348.9796,112,344.9796,116,353.9796" style="stroke: #A80036; stroke-width: 1.0;"/><text fill="#000000" font-family="sans-serif" font-size="13" lengthAdjust="spacingAndGlyphs" textLength="43" x="117" y="321.4986">«uses»</text></g></svg>